<svg preserveAspectRatio="none" width="100%" height="100%" overflow="visible" style="display: block;" viewBox="0 0 84.0004 76.0001" fill="none" xmlns="http://www.w3.org/2000/svg">
<g id="Group">
<g id="Vector">
<path d="M11.2103 22.9933L11.2765 22.9209C11.6993 22.4522 12.0269 21.9063 12.4658 21.443C14.0923 19.7255 16.2439 18.8706 18.5794 18.7397C19.1311 18.7088 19.7183 18.6955 20.2666 18.7743C19.7072 19.6185 19.1469 20.4899 18.4708 21.2445C16.7786 23.1331 14.3376 24.1532 11.9015 24.6399C11.4423 24.7315 10.9807 24.8083 10.5167 24.8704C9.92882 26.7177 9.4816 28.6545 9.26657 30.585C10.1967 28.2 11.3457 26.4056 13.7596 25.3401C14.9033 24.8352 16.0997 24.551 17.3227 24.3264C16.8843 25.3407 16.4785 26.4055 15.8924 27.3442C14.3831 29.7622 11.4793 31.3564 8.97877 32.5681C8.83841 34.4078 8.97589 36.2062 9.03188 38.0416L9.05919 38.0525C9.18871 37.5762 9.25995 37.0826 9.39762 36.6096C10.0085 34.5116 11.201 32.7466 13.1129 31.6564C13.9044 31.2051 14.748 30.8079 15.6216 30.5494C15.3927 31.7193 15.2079 32.9162 14.7851 34.0351C14.0289 36.0366 12.4805 37.3428 10.9013 38.6759C10.3314 39.157 9.77019 39.661 9.18154 40.118C9.36063 40.9707 9.47106 41.8356 9.64545 42.6889C9.87324 43.8037 10.1787 44.942 10.4907 46.0369C10.3426 43.5676 10.613 41.2718 12.3102 39.3451C13.0705 38.4822 14.1351 37.6051 15.1547 37.0554C15.7553 41.3211 14.2548 43.5559 11.816 46.8184C11.5821 47.1337 11.3366 47.4396 11.0795 47.7361C11.9929 49.9561 12.952 52.3438 14.2772 54.352C13.2976 51.9036 12.5975 49.523 13.687 46.9601C14.1965 45.7615 15.2721 44.0897 16.2764 43.2321C16.4394 44.1346 16.7449 45.0064 16.8888 45.9119C17.4713 49.5773 16.1813 51.791 14.6241 54.8962C15.6424 56.6131 17.0647 58.1622 18.4567 59.5762C18.7871 59.9118 19.1768 60.3511 19.5685 60.6033L19.5775 60.5666C19.5564 60.5543 19.5337 60.5443 19.5141 60.5296C19.3224 60.3857 19.1157 60.0481 18.961 59.8556C17.7121 58.3022 16.9757 56.3591 17.0322 54.3474C17.0781 52.715 17.7935 50.4163 18.714 49.0392C20.1291 51.675 21.0622 53.6079 20.7597 56.7298C20.6517 57.8439 20.41 59.0141 20.0842 60.0861C20.0283 60.2699 19.7825 60.7655 19.854 60.9134C20.0641 61.348 20.7522 61.8092 21.12 62.125C23.7852 64.4137 26.699 66.0971 29.8783 67.5405C30.9615 68.0321 32.053 68.5247 33.195 68.8649C33.3275 68.9044 33.4516 68.9412 33.5913 68.931C33.4676 68.7808 33.0691 68.7053 32.8835 68.6227C32.526 68.4634 32.2088 68.2816 31.8877 68.0583C28.3919 65.6283 27.3023 62.7808 27.5786 58.554C28.1754 58.9468 28.7369 59.419 29.279 59.8847C31.5558 61.8411 32.7315 63.8033 33.3492 66.7656C33.499 67.4843 33.6363 68.2467 33.6682 68.9802C34.9702 69.3932 36.2549 69.7283 37.5965 69.987C38.3837 70.1389 39.2081 70.2168 39.9827 70.4162L39.9706 71.6106C36.7014 71.405 33.5881 70.5389 30.5363 69.3666C29.851 69.1033 29.1864 68.7944 28.5055 68.5232C25.9649 70.6663 23.1535 71.5435 19.8529 71.2511C18.3566 71.1185 16.4156 70.6941 15.1389 69.8645C18.2844 67.7804 21.1353 66.5929 24.9594 67.3872C25.5948 67.5194 26.2199 67.6899 26.8346 67.8986C27.2221 68.0277 27.6203 68.1954 28.0153 68.2885C27.6068 68.0365 27.1507 67.832 26.7249 67.6084C26.0163 67.2395 25.3231 66.8433 24.6453 66.4198C22.7381 65.2212 21.0961 63.9443 19.4224 62.4396C15.0309 58.4913 12.2568 54.3553 10.2384 48.7861C9.78403 47.5323 9.32741 46.2806 9.02858 44.9783C7.88583 44.6835 6.81247 44.2976 5.8047 43.6681C2.62128 41.6801 0.837576 38.6853 0 35.0721C0.614828 35.2107 1.22571 35.5004 1.79354 35.7739C5.71468 37.6633 7.39056 39.8682 8.80854 43.9128C8.70932 43.0837 8.49754 42.2563 8.35902 41.4314C8.22565 40.6756 8.12098 39.9159 8.04504 39.1521C7.96905 38.3883 7.92198 37.6228 7.90384 36.8554C6.81755 36.4029 5.32361 35.1432 4.47958 34.2918C2.08297 31.8742 1.04527 28.6461 1.03977 25.283C1.51944 25.5318 1.97361 25.8602 2.41399 26.1733C4.71331 27.8076 6.5076 29.8852 7.31539 32.6491C7.58947 33.5867 7.73952 34.5541 7.90373 35.5155C7.94726 34.8673 7.92387 34.2125 7.9669 33.5626C8.06641 32.059 8.25824 30.564 8.45545 29.0709C7.11405 27.9315 5.9319 26.3147 5.15124 24.7404C3.95768 22.3335 3.64237 18.9763 4.50805 16.4083C4.77169 16.6549 5.01971 16.9258 5.25391 17.2004C7.48909 19.8224 8.88264 22.4 8.86835 25.9458C8.86605 26.51 8.78936 27.0599 8.74536 27.6206C9.31146 25.6075 9.89991 23.5504 10.7768 21.6484C9.69684 20.1778 8.83191 18.3189 8.50693 16.52C8.13727 14.4739 8.28086 12.6129 8.95578 10.6476C9.18883 9.96907 9.45334 9.30382 9.85934 8.71008C10.2633 9.32656 10.5796 10.009 10.8839 10.6797C11.9284 12.9828 12.3656 14.9771 12.1128 17.5227C12.0318 18.3381 11.8098 19.1102 11.6906 19.9162C12.7045 17.648 14.1244 15.6241 15.6506 13.6787C16.1764 13.0087 16.6975 12.3284 17.2814 11.7078C18.0105 10.933 18.7585 10.189 19.583 9.51657C19.7866 9.35047 20.6384 8.78633 20.6861 8.56683L20.5224 8.53733C20.4958 8.49702 20.4881 8.49163 20.4754 8.43727C20.2854 7.6276 21.4017 5.35708 21.8481 4.67679C23.5067 2.14937 26.3033 0.597346 29.1975 0.00554064C29.0928 0.504226 28.9344 0.989586 28.7521 1.46485C27.8836 3.72872 26.3375 5.83573 24.2461 7.09047C23.4786 7.55088 22.673 7.87169 21.8644 8.24283C21.6605 8.3364 21.4694 8.45167 21.2913 8.58862C20.9362 8.86192 18.9996 10.578 18.8815 10.8878C19.2236 10.7409 19.5188 10.3792 19.8311 10.165C20.5646 9.66183 21.4056 9.22303 22.2284 8.89593C24.9762 7.80353 27.4244 8.14006 30.0753 9.30207C28.9345 10.1429 27.8044 10.9488 26.4844 11.4885C26.4054 11.5203 26.326 11.5511 26.2463 11.581C26.1665 11.6108 26.0864 11.6397 26.0059 11.6676C25.9255 11.6955 25.8447 11.7224 25.7636 11.7483C25.6825 11.7743 25.6011 11.7993 25.5194 11.8232C25.4377 11.8472 25.3557 11.8702 25.2734 11.8922C25.1912 11.9141 25.1087 11.9351 25.026 11.9551C24.9432 11.9751 24.8602 11.9941 24.777 12.0121C24.6938 12.0301 24.6104 12.0471 24.5268 12.063C24.4431 12.0789 24.3593 12.0938 24.2754 12.1077C24.1914 12.1217 24.1073 12.1346 24.023 12.1465C23.9387 12.1583 23.8543 12.1691 23.7697 12.179C23.6852 12.1888 23.6005 12.1976 23.5157 12.2054C23.431 12.2131 23.3462 12.2199 23.2613 12.2256C23.1764 12.2313 23.0914 12.236 23.0064 12.2397C22.9213 12.2434 22.8363 12.246 22.7512 12.2476C22.6661 12.2492 22.581 12.2497 22.4959 12.2492C22.4107 12.2488 22.3257 12.2473 22.2406 12.2447C22.1555 12.2422 22.0705 12.2386 21.9855 12.234C21.9006 12.2294 21.8156 12.2238 21.7308 12.2171C21.646 12.2105 21.5612 12.2028 21.4765 12.1941C21.3918 12.1854 21.3073 12.1757 21.2229 12.1649C21.1384 12.1542 21.0541 12.1424 20.97 12.1296C20.8858 12.1167 20.8019 12.1029 20.718 12.0881C20.6342 12.0732 20.5506 12.0574 20.4672 12.0405C20.3838 12.0236 20.3005 12.0057 20.2175 11.9868C20.1345 11.9679 20.0517 11.9481 19.9692 11.9272C19.8867 11.9063 19.8044 11.8844 19.7224 11.8615C19.6404 11.8386 19.5587 11.8148 19.4772 11.7899C19.3958 11.765 19.3147 11.7391 19.2339 11.7123C19.153 11.6854 19.0725 11.6576 18.9925 11.6288C18.9123 11.6 18.8325 11.5702 18.7531 11.5395C18.6737 11.5088 18.5946 11.4771 18.5159 11.4445C17.5245 12.2971 15.1316 15.2038 14.4745 16.4059C15.1928 15.6289 15.9567 15.0144 16.8856 14.5044C19.2011 13.2329 21.9186 13.1769 24.4165 13.9088C23.9569 14.406 23.4406 14.8713 22.9355 15.3216C20.0782 17.8687 17.3878 17.8766 13.7993 17.6631C12.9573 19.1931 11.6868 21.3603 11.2103 22.9933Z" fill="var(--fill-0, #F4DB98)"/>
<path d="M14.7121 14.6376C14.1393 13.1408 13.8841 10.347 14.0805 8.78657C14.3728 6.46228 15.8733 3.45265 17.7508 1.9921L17.8144 2.03607C17.9461 3.19278 18.1675 4.33849 18.2417 5.50222C18.2511 5.64843 18.2577 5.79477 18.2615 5.94124C18.2653 6.0877 18.2663 6.23419 18.2645 6.38072C18.2628 6.52724 18.2582 6.67367 18.2507 6.82001C18.2433 6.96636 18.2331 7.1125 18.2202 7.25843C18.2072 7.40433 18.1914 7.54994 18.1729 7.69533C18.1543 7.84064 18.133 7.98556 18.1089 8.13009C18.0848 8.27456 18.0579 8.41855 18.0283 8.56206C17.9987 8.7055 17.9665 8.84834 17.9314 8.99056C17.8963 9.13277 17.8586 9.27425 17.8181 9.415C17.7776 9.55575 17.7345 9.69569 17.6887 9.83483C17.6429 9.97391 17.5945 10.112 17.5433 10.2493C17.4923 10.3865 17.4386 10.5227 17.3823 10.6578C17.326 10.793 17.2671 10.9269 17.2057 11.0598C17.1443 11.1927 17.0803 11.3243 17.0138 11.4547C16.9474 11.5851 16.8784 11.7142 16.8071 11.8419C16.7357 11.9696 16.6619 12.096 16.5857 12.2208C16.3011 12.686 15.9718 13.0991 15.6482 13.5347C15.3686 13.9108 15.1059 14.3111 14.7983 14.6643L14.7121 14.6376Z" fill="var(--fill-0, #F4DB98)"/>
<path d="M11.5924 52.2741C9.79388 52.3286 7.99298 51.7936 6.41248 50.9441C4.32052 49.8196 2.73782 48.225 1.43095 46.2514C1.08306 45.7259 0.70494 45.1748 0.522477 44.5662C1.80314 44.6368 3.03292 44.9 4.2472 45.3055C7.85598 46.5108 9.94632 48.9779 11.5924 52.2741Z" fill="var(--fill-0, #F4DB98)"/>
<path d="M3.2329 53.9112C3.78462 53.772 4.36301 53.7404 4.92843 53.695C5.52824 53.6545 6.12798 53.6559 6.72761 53.6994C10.4973 53.9913 13.4809 56.1488 15.8738 58.9361C15.3568 59.0806 14.8344 59.1617 14.301 59.2139C13.4194 59.2642 12.5349 59.2583 11.6609 59.1194C8.49505 58.6162 5.11931 56.5284 3.2329 53.9112Z" fill="var(--fill-0, #F4DB98)"/>
<path d="M26.2973 65.6094C24.9551 64.6671 23.7217 63.471 22.9397 62.0107C21.6383 59.5806 21.8275 56.6994 22.6037 54.1301C22.7711 54.2438 22.9164 54.4465 23.0476 54.6012C23.8467 55.5436 24.7074 56.5674 25.3102 57.6486C26.6395 60.0329 26.8196 63.123 26.5958 65.8072L26.2973 65.6094Z" fill="var(--fill-0, #F4DB98)"/>
<path d="M8.41978 62.6392C8.82523 62.4793 9.23623 62.3353 9.65275 62.2075C10.0693 62.0795 10.4902 61.968 10.9153 61.8729C11.3405 61.7778 11.7687 61.6994 12.1999 61.6377C12.631 61.576 13.064 61.5311 13.4986 61.5032C16.597 61.3185 19.3587 62.6329 21.7365 64.4999C20.0591 65.3287 18.5797 65.6507 16.7221 65.685C13.7571 65.7059 10.704 64.5362 8.41978 62.6392Z" fill="var(--fill-0, #F4DB98)"/>
<path d="M23.4961 75.7228C23.8554 75.3125 24.2673 74.9329 24.6549 74.5487C26.5379 72.6822 28.742 70.8936 31.4783 70.6608C33.0627 70.5708 34.6788 71.0883 36.2081 71.4511C34.1052 73.7578 31.3697 75.3172 28.2907 75.8338C26.7532 76.0715 25.0202 76.0711 23.4961 75.7228Z" fill="var(--fill-0, #F4DB98)"/>
</g>
<g id="Vector_2">
<path d="M62.9525 8.54403C63.5412 9.12715 64.2186 9.6427 64.8339 10.2004C65.4997 10.8034 66.1261 11.452 66.7952 12.0494C66.4942 11.3197 66.1432 10.6276 65.9128 9.8675C65.1274 7.2779 65.3576 4.42532 66.0571 1.84191C67.9387 3.40783 69.4374 6.72333 69.6704 9.15154C69.8507 11.0301 69.617 12.8138 69.0006 14.5909C69.8723 15.8974 70.7347 17.2002 71.5193 18.5625C71.8658 19.164 72.3989 20.4276 72.7897 20.8886C72.7857 20.8755 72.7818 20.8623 72.7776 20.8493C72.5547 20.1568 72.1831 19.5214 71.9649 18.8191C71.0526 15.8831 71.4638 13.0564 72.8149 10.3491C73.0942 9.78964 73.4078 9.21787 73.7918 8.72344C75.3942 11.7562 75.7651 15.0711 74.7605 18.3737C74.4175 19.5012 73.8413 20.7636 72.9974 21.6017C73.6855 23.0186 74.1752 24.6675 74.5863 26.1898C74.7801 26.907 74.9428 27.6407 75.1649 28.349L75.1637 28.2874C75.1434 27.5059 74.9917 26.7324 74.971 25.9495C74.8767 22.3904 75.9863 19.9146 78.3672 17.3696C78.6696 17.0463 78.9829 16.7292 79.3178 16.4402C80.1567 19.2389 79.8254 22.5591 78.4618 25.138C77.6486 26.6758 76.5992 27.7767 75.2696 28.8611C75.5929 30.3577 75.7874 32.44 75.8396 33.9731C75.8631 34.6612 75.7585 35.4973 75.8624 36.1588C75.9032 36.07 76.0999 34.0316 76.1661 33.6914C76.7991 30.443 78.1004 28.3995 80.8524 26.5749C81.4864 26.1546 82.1497 25.7255 82.8414 25.4088C82.3888 29.5317 81.2718 32.5613 77.9485 35.2454C77.3174 35.7552 76.6101 36.2367 75.8514 36.5317C75.8695 39.0558 75.4185 41.4368 74.9736 43.9052C75.8683 41.4574 77.0605 38.9191 79.1634 37.2761C79.9852 36.6342 81.0146 36.0933 81.9608 35.6533C82.6154 35.349 83.3083 35.0153 84.0001 34.8098C83.7148 35.8911 83.3996 36.9624 82.9386 37.9834C81.9072 40.2676 80.0906 42.3365 77.9281 43.5921C76.986 44.139 75.7975 44.6872 74.7194 44.9006C74.2952 46.6345 73.6583 48.3441 72.9878 49.9957C72.6915 50.7256 72.2898 51.4621 72.0766 52.2194L72.0275 52.3103L71.9853 52.3787C71.681 52.8795 71.4586 53.4364 71.1668 53.9469C70.7516 54.6717 70.3045 55.376 69.8254 56.0598C69.3462 56.7436 68.8371 57.404 68.2981 58.041C69.179 57.4335 69.8637 56.5922 70.7318 55.9655C73.348 54.0766 76.9565 53.4329 80.132 53.8352C78.4482 56.3449 75.7005 58.4171 72.7151 58.9943C70.9989 59.3262 69.334 59.2024 67.6179 58.9887C67.0817 59.6129 66.5569 60.2651 65.9779 60.8491C64.8034 62.0338 63.4853 63.1018 62.2286 64.1971C62.2479 64.1879 62.2671 64.179 62.2862 64.1695C63.2756 63.6785 64.1051 62.875 65.1001 62.3685C68.1149 60.8335 71.8702 61.4942 74.9445 62.5164C75.0154 62.54 75.0844 62.5663 75.1541 62.5932C72.8675 64.6352 69.5478 65.7366 66.5136 65.5536C65.003 65.4625 63.3419 65.1289 61.9708 64.4535C60.8669 65.2558 59.7619 66.0718 58.5779 66.7521C57.7836 67.2084 56.5694 67.6499 55.8998 68.1976C56.8753 67.8705 57.8592 67.4948 58.8628 67.269C61.3537 66.7086 63.9104 67.3059 66.1613 68.4327C66.9767 68.8409 67.7548 69.3292 68.514 69.834C65.0549 71.2913 61.6966 71.8318 58.104 70.3523C57.1661 69.9661 55.868 69.3216 55.1421 68.6032C51.3727 70.2285 47.8104 71.2658 43.7207 71.6586C43.7178 71.2469 43.7113 70.8353 43.7011 70.4238C44.5719 70.2248 45.4609 70.1294 46.3376 69.9605C47.6079 69.7159 48.9185 69.3599 50.1474 68.955C50.3102 67.883 50.4079 66.8032 50.6561 65.7458C51.3396 62.8331 53.1375 60.6133 55.4992 58.8782C55.7167 58.7185 55.9344 58.5719 56.1721 58.4442C56.3501 61.2221 55.9822 64.0241 54.0967 66.1994C53.3815 67.0247 52.5498 67.6468 51.6199 68.2039C51.2787 68.4082 50.9018 68.5882 50.5811 68.8214C51.9288 68.5008 56.1161 66.6751 57.1659 65.8874L57.2226 65.8407C58.7543 65.3657 62.4672 62.2423 63.7546 61.083C63.5271 60.5395 63.3473 59.9805 63.2152 59.406C62.2523 55.3779 62.9011 52.5191 65.043 48.9942C65.6677 49.9854 66.1198 51.2273 66.3804 52.3652C66.9071 54.6656 66.7527 57.0314 65.3683 59.0083C64.9309 59.6329 64.3256 60.1962 63.9371 60.843C63.9209 60.8699 63.9054 60.8971 63.8895 60.9242C64.3418 60.6575 64.7574 60.0983 65.1148 59.7129C66.6049 58.1061 68.016 56.5232 69.1552 54.6389C68.7584 54.0194 68.3676 53.4044 68.0386 52.7448C66.3483 49.3554 66.2933 46.5826 67.4649 43.0215C68.3928 43.7804 69.144 44.8117 69.6993 45.8696C70.7987 47.9638 70.9593 50.2398 70.1227 52.4543C69.8629 53.1418 69.4643 53.7893 69.2548 54.4915L69.2364 54.5551C70.5199 52.6198 72.0075 49.5515 72.7481 47.3454C72.5524 47.1589 72.36 46.969 72.1708 46.7758C70.1491 44.7078 68.6937 42.5882 68.4979 39.612C68.4381 38.7051 68.4937 37.7798 68.5006 36.8706C69.8616 37.5864 71.5439 38.9573 72.3501 40.2867C73.7026 42.5175 73.4068 44.824 72.8207 47.2279C73.1278 46.5949 73.3087 45.8982 73.4991 45.2225C74.0216 43.3674 74.3488 41.5561 74.6125 39.6495C73.6778 39.256 72.8665 38.7197 72.0716 38.0952C69.3677 35.9706 68.5024 33.8648 68.0934 30.5315C69.6123 30.9955 71.0925 31.8202 72.2722 32.8903C73.5728 34.0699 74.3549 35.9893 74.552 37.7151C74.6157 38.2736 74.5844 38.8234 74.6147 39.3816C74.7426 39.2172 74.7182 38.5767 74.7325 38.3506C74.8659 36.2434 74.861 34.2269 74.6279 32.1253C73.8522 31.8355 73.0595 31.5791 72.3082 31.2287C70.3527 30.3167 68.6185 28.8812 67.5828 26.9572C67.1448 26.1434 66.821 25.2512 66.5026 24.3842C68.016 24.6502 69.631 25.0621 70.955 25.8604C72.985 27.0842 74.0306 29.2604 74.5838 31.4917C74.544 29.1405 73.7034 26.9686 73.1574 24.7189C72.2379 24.6898 71.2042 24.4877 70.3168 24.2513C69.9147 24.1408 69.5195 24.0095 69.131 23.8574C68.7425 23.7053 68.363 23.5333 67.9924 23.3413C65.8441 22.2409 64.6681 20.808 63.474 18.7456C64.8054 18.7057 66.2752 18.7683 67.5687 19.098C69.3015 19.5396 70.8174 20.7287 71.8537 22.1701C72.1809 22.6254 72.4465 23.1312 72.7327 23.6133C72.73 23.6004 72.7276 23.5874 72.7247 23.5745C72.5082 22.5791 71.739 21.0855 71.2646 20.1699C70.3907 18.4828 69.5352 16.7969 68.4405 15.2395C67.3423 13.6769 65.9947 12.2529 64.7211 10.8367C64.1668 10.2204 63.6362 9.47701 62.9934 8.95298C62.4528 8.51213 61.7487 8.27836 61.1194 7.99534C60.641 7.7859 60.1823 7.53922 59.7434 7.25528C57.688 5.94318 56.21 4.01884 55.1355 1.84897C54.843 1.25832 54.5424 0.646474 54.398 0C56.2685 0.517667 58.0467 1.17503 59.589 2.40114C59.6471 2.44805 59.7046 2.4957 59.7616 2.54411C59.8185 2.59243 59.8749 2.64148 59.9306 2.6912C59.9864 2.74095 60.0415 2.79136 60.0961 2.84245C60.1506 2.89348 60.2045 2.94521 60.2578 2.99766C60.311 3.05003 60.3637 3.10309 60.4157 3.15683C60.4677 3.21056 60.519 3.26488 60.5697 3.31983C60.6204 3.37479 60.6703 3.43037 60.7196 3.4866C60.7689 3.54278 60.8176 3.59956 60.8655 3.65694C60.9135 3.71433 60.9607 3.77229 61.0072 3.83085C61.0538 3.8894 61.0996 3.94848 61.1447 4.00814C61.1898 4.06785 61.2341 4.12805 61.2778 4.18878C61.3213 4.24951 61.3642 4.31079 61.4064 4.37262C61.4485 4.43445 61.4899 4.49679 61.5306 4.55964C61.5712 4.62242 61.6111 4.68574 61.6501 4.74954C61.6892 4.81337 61.7275 4.87762 61.765 4.94234C61.8026 5.00711 61.8393 5.07234 61.8753 5.13804C61.9112 5.20365 61.9463 5.26971 61.9807 5.33624C62.0151 5.40275 62.0486 5.46969 62.0813 5.53705C62.1141 5.60439 62.1459 5.6721 62.177 5.74016C62.2081 5.80827 62.2383 5.87678 62.2677 5.94569C62.2971 6.01452 62.3257 6.08373 62.3534 6.15333C62.3812 6.22287 62.408 6.29276 62.434 6.36301C62.4601 6.43324 62.4853 6.50378 62.5096 6.5746C62.5339 6.64542 62.5573 6.71657 62.58 6.78803C62.6025 6.85944 62.6242 6.93111 62.6451 7.0031C62.6659 7.07502 62.6859 7.14718 62.705 7.21961C62.7241 7.2921 62.7423 7.3648 62.7596 7.43767C62.7769 7.51055 62.7933 7.58361 62.8089 7.65689C62.8245 7.73022 62.8392 7.80371 62.8529 7.87736C62.8667 7.95101 62.8796 8.02482 62.8915 8.0988C62.9035 8.17277 62.9146 8.24687 62.9248 8.32109C62.9349 8.39531 62.9441 8.46955 62.9525 8.54403Z" fill="url(#paint0_linear_0_5)"/>
<path d="M53.6425 9.28313C54.7922 8.81211 55.8542 8.47037 57.0976 8.3356C57.4447 8.29029 57.8192 8.29011 58.1698 8.29347C60.8657 8.31931 63.1422 9.67093 64.9812 11.5597C63.9218 12.0318 62.71 12.1635 61.5651 12.2555C58.6007 12.37 55.8825 11.1864 53.6425 9.28313Z" fill="var(--fill-0, #F4DB98)"/>
<path d="M59.2258 13.9082C60.2306 13.6707 61.218 13.4584 62.252 13.3977C62.9818 13.3556 63.7407 13.406 64.4527 13.5757C66.6731 14.105 68.5894 15.7058 69.7837 17.6331C68.8431 17.8048 67.9049 17.8257 66.9531 17.7912C66.7389 17.7834 66.5251 17.7696 66.3116 17.7499C63.9848 17.517 62.1234 16.5516 60.3783 15.0149C59.9844 14.6681 59.5598 14.3143 59.2258 13.9082Z" fill="var(--fill-0, #F4DB98)"/>
<path d="M72.0766 52.2194C73.6606 49.5789 74.849 47.6507 77.676 46.1247C78.6154 45.6176 79.6848 45.185 80.7224 44.9284C81.4476 44.7491 82.2359 44.6155 82.9843 44.5991C82.949 44.6911 82.9125 44.7826 82.875 44.8738C82.8374 44.9648 82.7987 45.0555 82.7589 45.1456C82.719 45.2357 82.6782 45.3253 82.6362 45.4145C82.5941 45.5036 82.551 45.5921 82.5068 45.6802C82.4627 45.7682 82.4174 45.8557 82.3711 45.9427C82.3248 46.0296 82.2774 46.1159 82.2289 46.2017C82.1805 46.2874 82.131 46.3725 82.0804 46.4571C82.0299 46.5416 81.9783 46.6254 81.9257 46.7087C81.8731 46.7919 81.8195 46.8745 81.7649 46.9564C81.7103 47.0383 81.6547 47.1195 81.598 47.2C81.5414 47.2805 81.4838 47.3603 81.4253 47.4395C81.3667 47.5186 81.3071 47.5969 81.2466 47.6746C81.1861 47.7522 81.1247 47.8291 81.0623 47.9052C80.9999 47.9813 80.9366 48.0565 80.8724 48.131C80.8082 48.2056 80.743 48.2793 80.6769 48.3522C80.6109 48.4251 80.544 48.4972 80.4762 48.5684C80.4084 48.6397 80.3397 48.7101 80.2702 48.7796C80.2006 48.8492 80.1302 48.9178 80.059 48.9856C79.9878 49.0534 79.9157 49.1203 79.8429 49.1863C79.77 49.2523 79.6964 49.3174 79.6219 49.3817C79.5475 49.4459 79.4722 49.5091 79.3961 49.5715C79.3202 49.6337 79.2434 49.6951 79.1659 49.7555C79.0883 49.8159 79.0101 49.8753 78.9311 49.9338C78.8522 49.9923 78.7725 50.0498 78.6921 50.1063C78.6117 50.1628 78.5306 50.2183 78.4489 50.2727C78.3671 50.3272 78.2847 50.3807 78.2016 50.4331C78.1185 50.4855 78.0348 50.5369 77.9505 50.5872C77.8662 50.6376 77.7812 50.6869 77.6957 50.7352C77.6102 50.7834 77.5241 50.8306 77.4373 50.8767C77.3507 50.9229 77.2634 50.9679 77.1756 51.0118C77.0878 51.0557 76.9995 51.0986 76.9106 51.1404C76.8218 51.1821 76.7324 51.2228 76.6426 51.2623C75.7864 51.6349 72.9448 52.5106 72.0715 52.3831L72.0275 52.3103L72.0766 52.2194Z" fill="var(--fill-0, #F4DB98)"/>
<path d="M57.2226 65.8407L57.1659 65.8874C57.1433 65.8655 57.1168 65.8467 57.0984 65.8212C56.8888 65.5326 56.9634 63.9262 56.9767 63.5151C57.1041 59.5645 58.3554 56.8463 61.2177 54.1603C61.6555 55.6184 61.735 57.4186 61.5926 58.9318C61.5804 59.0583 61.5655 59.1846 61.5479 59.3105C61.5302 59.4364 61.5098 59.5619 61.4866 59.6869C61.4634 59.8119 61.4375 59.9363 61.4089 60.0601C61.3802 60.184 61.3488 60.3071 61.3147 60.4296C61.2806 60.5521 61.2439 60.6737 61.2045 60.7945C61.1651 60.9153 61.123 61.0352 61.0783 61.1542C61.0336 61.2731 60.9863 61.391 60.9364 61.5079C60.8865 61.6247 60.8341 61.7404 60.7792 61.8549C60.7242 61.9695 60.6668 62.0827 60.6068 62.1946C60.5468 62.3066 60.4844 62.4172 60.4196 62.5264C60.3547 62.6355 60.2876 62.7432 60.218 62.8494C60.1484 62.9556 60.0766 63.0602 60.0024 63.1632C59.9283 63.2662 59.8519 63.3675 59.7733 63.4671C59.6947 63.5668 59.6139 63.6645 59.531 63.7605C59.4481 63.8565 59.3631 63.9506 59.276 64.0428C59.189 64.1351 59.0999 64.2254 59.0089 64.3136C58.4498 64.8668 57.827 65.3402 57.2226 65.8407Z" fill="var(--fill-0, #F4DB98)"/>
<path d="M47.4783 71.4797C48.7057 71.3983 50.2034 70.8586 51.5414 70.706C51.9473 70.6537 52.3894 70.7045 52.7904 70.7741C55.6376 71.2687 58.2362 73.4613 59.8791 75.7924C58.6049 75.9672 57.2154 75.9651 55.936 75.8351C55.0381 75.7085 54.1421 75.5489 53.2791 75.2622C51.3556 74.6233 48.7449 73.0844 47.4783 71.4797Z" fill="var(--fill-0, #F4DB98)"/>
</g>
</g>
<defs>
<linearGradient id="paint0_linear_0_5" x1="63.8506" y1="0" x2="63.8506" y2="71.6586" gradientUnits="userSpaceOnUse">
<stop stop-color="#F9E7B5"/>
<stop offset="1" stop-color="#F0CE79"/>
</linearGradient>
</defs>
</svg>
