<svg preserveAspectRatio="none" width="100%" height="100%" overflow="visible" style="display: block;" viewBox="0 0 47.25 45.75" fill="none" xmlns="http://www.w3.org/2000/svg">
<g id="laur" filter="url(#filter0_i_0_8)">
<path d="M4.52222 29.9973C4.74653 29.6792 4.84822 29.2951 4.80336 28.905C3.96292 29.037 3.35577 29.8143 3.53822 30.6575C3.95395 30.5675 4.2979 30.3154 4.52222 29.9973Z" fill="url(#paint0_linear_0_8)" fill-opacity="0.34"/>
<path d="M5.13535 31.4168C5.33574 31.0807 5.42547 30.6845 5.33574 30.3064C4.92001 30.4084 4.57904 30.6545 4.37267 30.9876C4.17228 31.3147 4.07957 31.7439 4.21117 32.149C4.62092 32.0259 4.94393 31.7499 5.13834 31.4168H5.13535Z" fill="url(#paint1_linear_0_8)" fill-opacity="0.34"/>
<path d="M5.86213 32.7762C6.0386 32.4251 6.07748 32.035 5.97579 31.6538C5.57202 31.7859 5.24601 32.059 5.06058 32.4101C4.87215 32.7612 4.84523 33.1753 4.98581 33.5804C5.38359 33.4304 5.68567 33.1273 5.86213 32.7792V32.7762Z" fill="url(#paint2_linear_0_8)" fill-opacity="0.34"/>
<path d="M6.68164 34.0846C6.82221 33.7275 6.8581 33.3163 6.71155 32.9562C6.31675 33.1213 6.01467 33.4154 5.85914 33.7755C5.70362 34.1326 5.68268 34.5647 5.87111 34.9489C6.25992 34.7658 6.53508 34.4447 6.67865 34.0846H6.68164Z" fill="url(#paint3_linear_0_8)" fill-opacity="0.34"/>
<path d="M7.59984 35.327C7.72546 34.9519 7.70153 34.5617 7.546 34.1986C7.16616 34.3907 6.88502 34.7088 6.75342 35.0839C6.6278 35.453 6.65472 35.8731 6.85511 36.2513C7.22598 36.0412 7.4802 35.6991 7.60283 35.327H7.59984Z" fill="url(#paint4_linear_0_8)" fill-opacity="0.34"/>
<path d="M7.93482 37.4696C8.64366 36.9865 8.84106 36.0562 8.47019 35.372C8.1053 35.5941 7.85107 35.9302 7.74938 36.3113C7.69854 36.5003 7.68657 36.7014 7.71349 36.9025C7.7434 37.1005 7.82116 37.2896 7.93781 37.4696H7.93482Z" fill="url(#paint5_linear_0_8)" fill-opacity="0.34"/>
<path d="M9.47512 36.4793C9.13117 36.7224 8.89489 37.0855 8.8261 37.4696C8.75731 37.8508 8.84106 38.2709 9.09827 38.61C9.76524 38.0788 9.9088 37.1185 9.47512 36.4793Z" fill="url(#paint6_linear_0_8)" fill-opacity="0.34"/>
<path d="M10.3485 39.6573C10.6655 39.3692 10.836 38.9791 10.8689 38.592C10.8868 38.3969 10.8689 38.2049 10.818 38.0218C10.7702 37.8358 10.6864 37.6587 10.5668 37.5027C10.2378 37.7757 10.0374 38.1478 9.99255 38.538C9.9417 38.9341 10.0643 39.3362 10.3485 39.6543V39.6573Z" fill="url(#paint7_linear_0_8)" fill-opacity="0.34"/>
<path d="M12.1071 39.5103C12.1161 39.1141 11.9905 38.733 11.7243 38.4509C11.1022 39.0391 11.0483 40.0084 11.6704 40.6116C11.9665 40.2995 12.1041 39.9004 12.1101 39.5133L12.1071 39.5103Z" fill="url(#paint8_linear_0_8)" fill-opacity="0.34"/>
<path d="M13.4171 40.3235C13.3932 39.9334 13.2347 39.5703 12.9565 39.2942C12.3823 39.9244 12.3912 40.9117 13.0612 41.4579C13.3304 41.1278 13.441 40.7137 13.4201 40.3235H13.4171Z" fill="url(#paint9_linear_0_8)" fill-opacity="0.34"/>
<path d="M14.5088 42.1991C14.754 41.848 14.8318 41.4279 14.778 41.0467C14.7241 40.6596 14.5477 40.2935 14.2426 40.0534C13.9824 40.3955 13.8687 40.8007 13.9136 41.1878C13.9615 41.5719 14.1559 41.962 14.5088 42.1961V42.1991Z" fill="url(#paint10_linear_0_8)" fill-opacity="0.34"/>
<path d="M16.0072 42.8323C16.2256 42.4632 16.2704 42.0401 16.1927 41.6559C16.1119 41.2688 15.8995 40.9447 15.5825 40.7076C15.3492 41.0648 15.2655 41.4819 15.3373 41.872C15.409 42.2621 15.6453 42.6042 16.0072 42.8323Z" fill="url(#paint11_linear_0_8)" fill-opacity="0.34"/>
<path d="M17.5535 43.3455C17.7419 42.9613 17.7569 42.5352 17.6462 42.1661C17.5326 41.797 17.3053 41.4579 16.9673 41.2658C16.7609 41.6409 16.7101 42.0611 16.8118 42.4392C16.9135 42.8143 17.1677 43.1654 17.5535 43.3455Z" fill="url(#paint12_linear_0_8)" fill-opacity="0.34"/>
<path d="M18.391 41.71C18.2145 42.0971 18.1936 42.5232 18.3222 42.8983C18.4508 43.2674 18.7349 43.5765 19.1297 43.7446C19.2882 43.3485 19.2733 42.9193 19.1357 42.5532C18.9981 42.1811 18.7379 41.896 18.391 41.71Z" fill="url(#paint13_linear_0_8)" fill-opacity="0.34"/>
<path d="M20.7328 44.0147C20.984 43.1954 20.5564 42.3402 19.8415 42.0461C19.695 42.4482 19.7069 42.8713 19.8655 43.2284C20.024 43.5855 20.3261 43.8946 20.7328 44.0147Z" fill="url(#paint14_linear_0_8)" fill-opacity="0.34"/>
<path d="M9.69645 8.23756C9.21791 7.53834 8.24288 7.30727 7.57591 7.85644C7.83911 8.19555 8.21297 8.39661 8.59281 8.45963C8.97266 8.52265 9.3525 8.44162 9.69645 8.24056V8.23756Z" fill="url(#paint15_linear_0_8)" fill-opacity="0.34"/>
<path d="M7.64171 8.74472C7.4473 8.72071 7.24093 8.73271 7.04952 8.78973C6.86408 8.85275 6.68762 8.95778 6.53209 9.10183C6.81922 9.41993 7.20504 9.59098 7.58787 9.62399C7.78228 9.642 7.96473 9.61799 8.15315 9.56997C8.34158 9.52496 8.52103 9.44393 8.67656 9.3269C8.40738 8.99679 8.03651 8.79273 7.64171 8.74472Z" fill="url(#paint16_linear_0_8)" fill-opacity="0.34"/>
<path d="M7.73443 10.4913C7.44132 10.1822 7.0555 10.0081 6.6607 9.9901C6.26889 9.9721 5.85017 10.1041 5.57202 10.4252C5.88307 10.7223 6.28086 10.8634 6.66369 10.8664C7.04054 10.8664 7.4473 10.7583 7.73443 10.4943V10.4913Z" fill="url(#paint17_linear_0_8)" fill-opacity="0.34"/>
<path d="M6.88203 11.7186C6.56499 11.4306 6.1702 11.2865 5.7754 11.2985C5.38957 11.3135 4.97683 11.4726 4.71663 11.8087C5.0516 12.0818 5.45238 12.1898 5.83821 12.1688C6.236 12.1508 6.61285 12.0037 6.87904 11.7186H6.88203Z" fill="url(#paint18_linear_0_8)" fill-opacity="0.34"/>
<path d="M3.9689 13.2611C4.66578 13.7443 5.6438 13.6122 6.12533 13.009C5.45238 12.4779 4.49829 12.5709 3.9689 13.2611Z" fill="url(#paint19_linear_0_8)" fill-opacity="0.34"/>
<path d="M3.34381 14.7676C4.07658 15.1967 5.03665 14.9867 5.46435 14.3475C4.75252 13.8673 3.81338 14.0354 3.34381 14.7676Z" fill="url(#paint20_linear_0_8)" fill-opacity="0.34"/>
<path d="M17.2574 3.57411C17.1886 3.15098 16.9703 2.79087 16.6562 2.55379C16.3452 2.32272 15.9235 2.19368 15.5107 2.28671C15.6005 2.71284 15.8487 3.04295 16.1657 3.27102C16.4858 3.50509 16.8746 3.62513 17.2604 3.57111L17.2574 3.57411Z" fill="url(#paint21_linear_0_8)" fill-opacity="0.34"/>
<path d="M15.8637 4.10227C15.6692 3.26501 14.8647 2.73985 14.0243 2.94992C14.2695 3.76317 15.1159 4.27033 15.8637 4.10227Z" fill="url(#paint22_linear_0_8)" fill-opacity="0.34"/>
<path d="M14.5118 4.73547C14.2546 3.91322 13.4171 3.45707 12.5946 3.73616C12.8997 4.53141 13.779 4.96954 14.5118 4.73547Z" fill="url(#paint23_linear_0_8)" fill-opacity="0.34"/>
<path d="M13.2107 5.4647C12.8907 4.66345 12.0234 4.27633 11.2308 4.62444C11.5957 5.39568 12.5019 5.76179 13.2107 5.4647Z" fill="url(#paint24_linear_0_8)" fill-opacity="0.34"/>
<path d="M11.9695 6.29596C11.7811 5.91784 11.4581 5.62375 11.0962 5.50371C10.7313 5.37767 10.3126 5.40468 9.93871 5.60874C10.3634 6.35297 11.2846 6.63806 11.9725 6.29596H11.9695Z" fill="url(#paint25_linear_0_8)" fill-opacity="0.34"/>
<path d="M10.2528 7.4003C10.4382 7.37329 10.6176 7.31027 10.7971 7.22625C10.5788 6.86013 10.2438 6.60205 9.85796 6.49102C9.4841 6.39199 9.07434 6.45501 8.71544 6.68908C8.95172 7.04619 9.31062 7.27426 9.68748 7.36729C9.8759 7.4123 10.0673 7.42431 10.2557 7.4003H10.2528Z" fill="url(#paint26_linear_0_8)" fill-opacity="0.34"/>
<path d="M2.83237 16.3161C3.59803 16.6882 4.53119 16.4061 4.90206 15.7309C4.15434 15.3048 3.23614 15.5448 2.83237 16.3161Z" fill="url(#paint27_linear_0_8)" fill-opacity="0.34"/>
<path d="M2.43757 17.9006C3.23315 18.2157 4.12742 17.8585 4.45044 17.1593C4.07059 16.9823 3.63093 16.9553 3.27502 17.0903C2.91312 17.2223 2.60506 17.5044 2.44056 17.9006H2.43757Z" fill="url(#paint28_linear_0_8)" fill-opacity="0.34"/>
<path d="M3.33783 19.425C3.69673 19.26 3.94498 18.9749 4.11845 18.6178C3.72066 18.4677 3.29596 18.4797 2.92808 18.6358C2.56319 18.7918 2.29401 19.1009 2.15942 19.5061C2.56618 19.6381 2.98789 19.5901 3.33783 19.425Z" fill="url(#paint29_linear_0_8)" fill-opacity="0.34"/>
<path d="M3.16436 20.9615C3.33484 20.8655 3.47242 20.7424 3.59803 20.5954C3.72963 20.4514 3.83132 20.2833 3.89413 20.0972C3.48438 19.9802 3.06566 20.0222 2.71273 20.2053C2.53926 20.2983 2.37177 20.4243 2.24915 20.5804C2.1325 20.7364 2.04577 20.9225 1.99791 21.1326C2.41364 21.2316 2.82938 21.1536 3.16436 20.9615Z" fill="url(#paint30_linear_0_8)" fill-opacity="0.34"/>
<path d="M3.09856 22.507C3.42755 22.2909 3.68477 21.9728 3.77749 21.5917C3.35876 21.5047 2.94602 21.5767 2.61104 21.7868C2.44355 21.8918 2.297 22.0298 2.18036 22.1949C2.12054 22.2789 2.06969 22.3659 2.02782 22.462C1.99193 22.558 1.96501 22.657 1.95006 22.7621C2.37177 22.8311 2.78152 22.7201 3.10155 22.507H3.09856Z" fill="url(#paint31_linear_0_8)" fill-opacity="0.34"/>
<path d="M3.75356 23.0892C2.91013 22.9661 2.10259 23.5303 2.03081 24.3916C2.45552 24.4306 2.8563 24.2895 3.16735 24.0495C3.47541 23.8094 3.68178 23.4763 3.75655 23.0862L3.75356 23.0892Z" fill="url(#paint32_linear_0_8)" fill-opacity="0.34"/>
<path d="M3.84927 24.5836C3.42157 24.5596 3.02378 24.6917 2.72769 24.9498C2.43757 25.2048 2.22821 25.5859 2.2312 26.0121C2.6589 26.0181 3.04771 25.847 3.33185 25.5889C3.62794 25.3279 3.82235 24.9738 3.84927 24.5836Z" fill="url(#paint33_linear_0_8)" fill-opacity="0.34"/>
<path d="M3.62794 27.1044C3.89712 26.8223 4.05265 26.4592 4.0676 26.0661C3.21819 26.0721 2.50038 26.7503 2.55721 27.6116C2.98191 27.5846 3.35876 27.3865 3.62794 27.1044Z" fill="url(#paint34_linear_0_8)" fill-opacity="0.34"/>
<path d="M4.02274 28.5959C4.27397 28.2928 4.41754 27.9147 4.38464 27.5246C3.95993 27.5636 3.58607 27.7556 3.33185 28.0557C3.0836 28.3498 2.93107 28.7609 2.99986 29.1811C3.42456 29.121 3.78347 28.896 4.02274 28.5959Z" fill="url(#paint35_linear_0_8)" fill-opacity="0.34"/>
<path d="M42.4347 28.905C42.3898 29.2951 42.4915 29.6792 42.7158 29.9973C42.9401 30.3154 43.2841 30.5675 43.6998 30.6575C43.8823 29.8113 43.2751 29.034 42.4347 28.905Z" fill="url(#paint36_linear_0_8)" fill-opacity="0.34"/>
<path d="M42.8684 30.9846C42.662 30.6515 42.321 30.4054 41.9053 30.3034C41.8156 30.6845 41.9053 31.0777 42.1057 31.4138C42.3001 31.7469 42.6231 32.0229 43.0329 32.146C43.1645 31.7409 43.0717 31.3117 42.8713 30.9846H42.8684Z" fill="url(#paint37_linear_0_8)" fill-opacity="0.34"/>
<path d="M42.2522 33.5804C42.3958 33.1753 42.3659 32.7612 42.1775 32.4101C41.992 32.059 41.666 31.7889 41.2622 31.6538C41.1606 32.035 41.1994 32.4251 41.3759 32.7762C41.5524 33.1243 41.8515 33.4274 42.2522 33.5774V33.5804Z" fill="url(#paint38_linear_0_8)" fill-opacity="0.34"/>
<path d="M41.3669 34.9489C41.5554 34.5677 41.5344 34.1326 41.3789 33.7755C41.2234 33.4154 40.9213 33.1213 40.5265 32.9562C40.3799 33.3194 40.4158 33.7275 40.5564 34.0846C40.7 34.4417 40.9781 34.7658 41.3639 34.9489H41.3669Z" fill="url(#paint39_linear_0_8)" fill-opacity="0.34"/>
<path d="M39.692 34.1986C39.5335 34.5617 39.5096 34.9489 39.6382 35.327C39.7608 35.6991 40.015 36.0442 40.3859 36.2513C40.5863 35.8731 40.6132 35.45 40.4876 35.0839C40.353 34.7088 40.0749 34.3907 39.695 34.1986H39.692Z" fill="url(#paint40_linear_0_8)" fill-opacity="0.34"/>
<path d="M38.7679 35.375C38.397 36.0562 38.5914 36.9865 39.3032 37.4726C39.4199 37.2926 39.4976 37.1035 39.5275 36.9055C39.5545 36.7044 39.5425 36.5033 39.4916 36.3143C39.39 35.9332 39.1357 35.5971 38.7708 35.375H38.7679Z" fill="url(#paint41_linear_0_8)" fill-opacity="0.34"/>
<path d="M37.7629 36.4793C37.3292 37.1215 37.4758 38.0818 38.1398 38.61C38.397 38.2679 38.4807 37.8508 38.4119 37.4696C38.3431 37.0855 38.1069 36.7224 37.7629 36.4793Z" fill="url(#paint42_linear_0_8)" fill-opacity="0.34"/>
<path d="M36.6712 37.5027C36.5516 37.6587 36.4679 37.8328 36.42 38.0218C36.3692 38.2049 36.3512 38.3969 36.3692 38.592C36.405 38.9791 36.5725 39.3692 36.8896 39.6573C37.1737 39.3392 37.2963 38.9371 37.2455 38.541C37.2006 38.1479 37.0002 37.7757 36.6712 37.5056V37.5027Z" fill="url(#paint43_linear_0_8)" fill-opacity="0.34"/>
<path d="M35.1309 39.5103C35.1369 39.9004 35.2745 40.2965 35.5706 40.6086C36.1897 40.0054 36.1389 39.0361 35.5168 38.4479C35.2476 38.73 35.125 39.1142 35.1339 39.5073L35.1309 39.5103Z" fill="url(#paint44_linear_0_8)" fill-opacity="0.34"/>
<path d="M33.8209 40.3235C33.797 40.7137 33.9077 41.1248 34.1798 41.4579C34.8498 40.9117 34.8588 39.9244 34.2845 39.2942C34.0064 39.5733 33.8478 39.9334 33.8239 40.3235H33.8209Z" fill="url(#paint45_linear_0_8)" fill-opacity="0.34"/>
<path d="M32.9984 40.0534C32.6904 40.2935 32.5139 40.6596 32.4631 41.0467C32.4092 41.4279 32.487 41.848 32.7322 42.1991C33.0882 41.965 33.2826 41.5719 33.3274 41.1908C33.3723 40.8007 33.2586 40.3956 32.9984 40.0564V40.0534Z" fill="url(#paint46_linear_0_8)" fill-opacity="0.34"/>
<path d="M31.0454 41.6559C30.9646 42.0371 31.0125 42.4632 31.2308 42.8323C31.5927 42.6042 31.832 42.2621 31.9008 41.872C31.9726 41.4819 31.8888 41.0648 31.6555 40.7076C31.3385 40.9447 31.1261 41.2688 31.0454 41.6559Z" fill="url(#paint47_linear_0_8)" fill-opacity="0.34"/>
<path d="M29.6845 43.3455C30.0704 43.1654 30.3216 42.8143 30.4263 42.4392C30.528 42.0611 30.4771 41.6409 30.2707 41.2658C29.9328 41.4579 29.7055 41.8 29.5918 42.1661C29.4812 42.5352 29.4961 42.9613 29.6845 43.3455Z" fill="url(#paint48_linear_0_8)" fill-opacity="0.34"/>
<path d="M28.9159 42.8983C29.0445 42.5232 29.0235 42.1001 28.8471 41.71C28.5001 41.896 28.2369 42.1811 28.1024 42.5532C27.9648 42.9193 27.9498 43.3485 28.1083 43.7446C28.5031 43.5735 28.7873 43.2674 28.9159 42.8983Z" fill="url(#paint49_linear_0_8)" fill-opacity="0.34"/>
<path d="M27.3726 43.2314C27.5311 42.8713 27.5431 42.4512 27.3965 42.0491C26.6817 42.3432 26.254 43.1984 26.5052 44.0177C26.912 43.8976 27.2171 43.5915 27.3726 43.2314Z" fill="url(#paint50_linear_0_8)" fill-opacity="0.34"/>
<path d="M46.3617 25.9611C46.7146 25.772 46.9988 25.4269 47.1304 24.9798C46.4275 24.7727 45.7037 25.1058 45.3328 25.709C45.3957 25.2829 45.4405 24.8537 45.4794 24.4246C45.8592 24.5026 46.2391 24.4396 46.5531 24.2415C46.8941 24.0285 47.1692 23.6623 47.25 23.2062C46.5292 23.0502 45.8323 23.4463 45.5093 24.0825C45.5392 23.6473 45.5602 23.2122 45.5631 22.7741C45.949 22.8251 46.3228 22.7321 46.6279 22.513C46.9509 22.2759 47.1692 21.8918 47.2261 21.4297C46.8014 21.3666 46.3946 21.4987 46.0806 21.7418C45.9221 21.8648 45.7875 22.0148 45.6858 22.1889C45.6349 22.2759 45.5901 22.3659 45.5572 22.465C45.5572 22.2519 45.5572 22.0418 45.5452 21.8288C45.5302 21.5947 45.5243 21.3606 45.5123 21.1266C45.8981 21.1476 46.266 21.0275 46.5531 20.7875C46.7087 20.6554 46.8492 20.4904 46.939 20.2983C47.0257 20.1092 47.0765 19.8902 47.0825 19.6591C46.6548 19.6291 46.26 19.7881 45.9669 20.0552C45.8174 20.1903 45.7037 20.3493 45.608 20.5294C45.5631 20.6104 45.5243 20.6974 45.4944 20.7875C45.4764 20.4844 45.4525 20.1813 45.4016 19.8812C45.3837 19.7491 45.3657 19.6171 45.3478 19.4851C45.7366 19.476 46.0925 19.332 46.3587 19.0679C46.6399 18.7828 46.8552 18.3627 46.8133 17.9006C46.3826 17.9006 46.0028 18.0926 45.7336 18.3807C45.5362 18.5908 45.3777 18.8519 45.2999 19.1429C45.2461 18.7408 45.1893 18.3417 45.0846 17.9516C45.0786 17.9216 45.0696 17.8916 45.0637 17.8646C45.8712 17.7925 46.4873 17.0723 46.4155 16.166C45.9819 16.202 45.6319 16.4151 45.3657 16.7272C45.1743 16.9553 45.0397 17.2344 44.9889 17.5344C44.8902 17.1083 44.7825 16.6822 44.6569 16.2621C45.4644 16.133 46.0118 15.3678 45.8772 14.4675C45.1504 14.5875 44.621 15.2267 44.5612 15.941C44.4296 15.5208 44.286 15.1067 44.1305 14.6956C44.9321 14.5095 45.4226 13.7053 45.2102 12.817C44.4894 12.991 44.0109 13.6752 44.0169 14.3955C43.8553 13.9843 43.6789 13.5762 43.4934 13.1741C44.283 12.931 44.7107 12.0908 44.4236 11.2205C43.7088 11.4546 43.2841 12.1838 43.3648 12.907C43.1674 12.4989 42.9611 12.0968 42.7397 11.7006C43.1046 11.5536 43.3948 11.2775 43.5473 10.9294C43.7028 10.5633 43.7028 10.1161 43.5234 9.68701C43.1256 9.84606 42.8384 10.1642 42.6889 10.5363C42.5663 10.8274 42.5453 11.1395 42.5992 11.4546C42.4586 11.2145 42.318 10.9744 42.1715 10.7403C42.0758 10.5903 41.9771 10.4432 41.8784 10.2962C42.2313 10.1191 42.4945 9.82805 42.6261 9.46494C42.7726 9.07482 42.7248 8.64268 42.5124 8.22856C42.1266 8.41761 41.8664 8.75672 41.7468 9.13484C41.6511 9.43193 41.6511 9.74703 41.7288 10.0651C41.4716 9.68701 41.1994 9.31789 40.9213 8.95778C41.2593 8.75672 41.4985 8.44462 41.6002 8.07851C41.6541 7.88345 41.675 7.66438 41.6391 7.45732C41.6032 7.25025 41.5225 7.04319 41.3998 6.84813C41.029 7.06419 40.7957 7.4213 40.703 7.80843C40.6581 8.00349 40.6491 8.20155 40.676 8.40261C40.685 8.51364 40.7089 8.62468 40.7418 8.73271C40.4577 8.3786 40.1676 8.03049 39.8625 7.69439C40.1825 7.46632 40.3979 7.14222 40.4697 6.7701C40.5474 6.37098 40.4727 5.91484 40.1855 5.55473C39.5634 5.99586 39.3989 6.79411 39.6651 7.48132C39.3571 7.15122 39.04 6.83012 38.711 6.51802C39.0131 6.26595 39.2045 5.92684 39.2494 5.54872C39.2733 5.34766 39.2554 5.1376 39.1955 4.93053C39.1387 4.72347 39.037 4.5194 38.8785 4.35135C38.5435 4.62144 38.3671 5.00856 38.3372 5.40168C38.3073 5.70477 38.3521 6.01387 38.4837 6.29596C38.1577 5.99586 37.8227 5.70777 37.4788 5.42569C38.071 4.86451 38.1099 3.91322 37.4878 3.24701C37.1707 3.5441 37.0301 3.93422 37.0182 4.34535C37.0092 4.65144 37.081 4.95754 37.2365 5.22762C37.1408 5.1526 37.0481 5.07158 36.9494 4.99655C36.6952 4.79849 36.435 4.60943 36.1718 4.42337C36.7221 3.81719 36.6802 2.87789 36.0132 2.2567C35.5168 2.80887 35.5018 3.65213 35.9116 4.24932C35.5437 4.00024 35.1668 3.76317 34.784 3.5351C35.2954 2.8869 35.1848 1.95061 34.464 1.38643C34.0094 1.97761 34.0602 2.81487 34.5178 3.37305C34.2367 3.211 33.9525 3.05495 33.6654 2.9019C33.5607 2.83888 33.456 2.78486 33.3454 2.73385C33.803 2.04964 33.6175 1.13135 32.8579 0.633197C32.4481 1.25739 32.5648 2.08865 33.0672 2.60481C32.9745 2.5628 32.8788 2.52378 32.7861 2.47877L31.8948 2.08265L31.841 2.05864C32.0324 1.71653 32.0862 1.31741 31.9875 0.954296C31.8798 0.573178 31.6047 0.222069 31.1949 0C30.9826 0.372116 30.9587 0.801249 31.0723 1.18537C31.156 1.47946 31.3205 1.73154 31.5508 1.9386L31.4402 1.89959L30.9796 1.74054C30.8031 1.67452 30.6267 1.6025 30.4562 1.52147C29.9059 0.765238 28.7962 0.591184 28.0156 1.08034C28.5929 2.01062 29.6875 2.2387 30.6267 1.81256C30.7254 1.83957 30.8241 1.86958 30.9228 1.90259L31.3804 2.06164L31.6077 2.14267L31.829 2.2387L32.7113 2.63482C33.0044 2.76986 33.3065 2.8869 33.5817 3.05495C34.7212 3.65814 35.8218 4.34235 36.8387 5.1346C38.8815 6.71008 40.6461 8.65169 42.0189 10.8394C43.3948 13.027 44.3758 15.4608 44.8992 17.9906C45.0637 18.6178 45.1145 19.263 45.2072 19.9022C45.3179 20.5414 45.3089 21.1896 45.3448 21.8348C45.4016 23.1252 45.3209 24.4216 45.1295 25.7C44.7436 28.2568 43.9032 30.7415 42.659 33.0043C41.4178 35.27 39.7548 37.2986 37.8048 38.9851C35.8517 40.6686 33.6056 42.0131 31.1889 42.9073C29.9806 43.3545 28.7334 43.6906 27.4653 43.9186C27.1483 43.9787 26.8312 44.0327 26.5112 44.0687C26.1912 44.1047 25.8741 44.1557 25.5511 44.1677C25.2281 44.1827 24.9081 44.2037 24.5881 44.1977C24.2651 44.1917 23.945 44.1917 23.625 44.2007C23.305 44.1887 22.982 44.1917 22.6619 44.1977C22.3389 44.2007 22.0189 44.1797 21.6989 44.1677C21.3759 44.1557 21.0588 44.1077 20.7388 44.0687C20.4188 44.0357 20.1017 43.9787 19.7847 43.9186C18.5166 43.6936 17.2694 43.3545 16.0611 42.9073C13.6444 42.0131 11.3983 40.6686 9.44522 38.9851C7.49516 37.2986 5.83223 35.273 4.59101 33.0043C3.34381 30.7415 2.50636 28.2568 2.12054 25.7C1.93211 24.4216 1.84837 23.1252 1.90519 21.8348C1.94108 21.1896 1.93211 20.5414 2.04277 19.9022C2.13549 19.263 2.18634 18.6148 2.35084 17.9906C2.87424 15.4608 3.85525 13.024 5.23106 10.8394C6.60387 8.65169 8.3685 6.71008 10.4113 5.1346C11.4312 4.34235 12.5288 3.65814 13.6683 3.05495C13.9465 2.8869 14.2456 2.76986 14.5387 2.63482L15.421 2.2387L15.6423 2.14267L15.8696 2.06164L16.3272 1.90259C16.4259 1.86958 16.5246 1.84257 16.6233 1.81256C17.5655 2.2387 18.6601 2.01363 19.2344 1.08034C18.4538 0.591184 17.3441 0.765238 16.7938 1.52147C16.6203 1.6025 16.4469 1.67452 16.2704 1.74054L15.8098 1.89959L15.6992 1.9386C15.9295 1.73154 16.094 1.47646 16.1777 1.18537C16.2914 0.801249 16.2674 0.372116 16.0551 0C15.6453 0.222069 15.3702 0.570177 15.2625 0.954296C15.1638 1.31741 15.2206 1.71353 15.409 2.05864L15.3552 2.08265L14.4639 2.47877C14.3712 2.52078 14.2785 2.5628 14.1828 2.60481C14.6852 2.08865 14.8019 1.25739 14.3921 0.633197C13.6295 1.13135 13.444 2.04964 13.9046 2.73385C13.797 2.78486 13.6893 2.83888 13.5846 2.9019C13.2975 3.05195 13.0133 3.211 12.7322 3.37305C13.1868 2.81487 13.2406 1.97761 12.786 1.38643C12.0652 1.95061 11.9546 2.8869 12.466 3.5351C12.0832 3.76317 11.7063 4.00024 11.3384 4.24932C11.7482 3.65213 11.7332 2.81187 11.2368 2.2567C10.5698 2.87489 10.5279 3.81418 11.0782 4.42337C10.815 4.60943 10.5548 4.79849 10.3006 4.99655C10.2049 5.07158 10.1092 5.1496 10.0135 5.22762C10.169 4.95754 10.2378 4.65144 10.2318 4.34535C10.2169 3.93422 10.0763 3.5441 9.76225 3.24701C9.14014 3.91322 9.17604 4.86451 9.77122 5.42569C9.42727 5.70777 9.09229 5.99586 8.76628 6.29596C8.89788 6.01387 8.94275 5.70477 8.91284 5.40168C8.88293 5.00856 8.70647 4.62144 8.37149 4.35135C8.21297 4.5194 8.11128 4.72047 8.05445 4.93053C7.99463 5.1376 7.97669 5.34766 8.00062 5.54872C8.04249 5.92384 8.23391 6.26595 8.53898 6.51802C8.21297 6.83012 7.89295 7.15122 7.58488 7.48132C7.85107 6.79111 7.68657 5.99586 7.06447 5.55473C6.77435 5.91484 6.69958 6.37098 6.78034 6.7701C6.85212 7.14222 7.06746 7.46932 7.38749 7.69439C7.08242 8.03049 6.7923 8.3786 6.50817 8.73271C6.54107 8.62468 6.56499 8.51364 6.57397 8.40261C6.60088 8.20155 6.59191 8.00349 6.54705 7.80843C6.45732 7.4213 6.22104 7.06419 5.85017 6.84813C5.72455 7.04319 5.64679 7.25025 5.6109 7.45732C5.57501 7.66438 5.59894 7.88345 5.64978 8.07851C5.75147 8.44762 5.99074 8.75672 6.32871 8.95778C6.04757 9.31789 5.77839 9.68701 5.52117 10.0651C5.59595 9.74703 5.59894 9.43493 5.50323 9.13484C5.3806 8.75372 5.1204 8.41461 4.73756 8.22856C4.52521 8.64268 4.47735 9.07482 4.62391 9.46494C4.75551 9.82805 5.0187 10.1191 5.37163 10.2962C5.27293 10.4432 5.17124 10.5903 5.07852 10.7403C4.92898 10.9744 4.78841 11.2145 4.65083 11.4546C4.70765 11.1395 4.68373 10.8274 4.5611 10.5363C4.41156 10.1642 4.12443 9.84606 3.72664 9.68701C3.5442 10.1161 3.54719 10.5633 3.70272 10.9294C3.85525 11.2775 4.14537 11.5536 4.51025 11.7006C4.28893 12.0968 4.08256 12.4989 3.88516 12.907C3.96591 12.1838 3.54121 11.4546 2.82639 11.2205C2.53926 12.0908 2.96696 12.928 3.75655 13.1741C3.56813 13.5762 3.39465 13.9843 3.23315 14.3955C3.23913 13.6752 2.76059 12.994 2.03978 12.817C1.82743 13.7053 2.31794 14.5095 3.11949 14.6956C2.96397 15.1067 2.81741 15.5208 2.68881 15.941C2.62899 15.2267 2.0996 14.5875 1.37282 14.4675C1.23823 15.3708 1.78855 16.133 2.5931 16.2621C2.47047 16.6822 2.35981 17.1083 2.26111 17.5344C2.21026 17.2344 2.07867 16.9553 1.88426 16.7272C1.61508 16.4151 1.26814 16.199 0.834457 16.166C0.762676 17.0723 1.3788 17.7925 2.18634 17.8646C2.18036 17.8946 2.17138 17.9246 2.1654 17.9516C2.06072 18.3417 2.00389 18.7438 1.95006 19.1429C1.87229 18.8519 1.71378 18.5878 1.51638 18.3807C1.2472 18.0926 0.867357 17.9036 0.436669 17.9006C0.397788 18.3627 0.610141 18.7828 0.891284 19.0679C1.15747 19.332 1.51638 19.476 1.9022 19.4851C1.88426 19.6171 1.8693 19.7491 1.84837 19.8812C1.79752 20.1813 1.7706 20.4844 1.75565 20.7875C1.72275 20.6974 1.68686 20.6134 1.642 20.5294C1.54629 20.3493 1.43263 20.1903 1.28309 20.0552C0.989983 19.7881 0.595186 19.6261 0.16749 19.6591C0.173471 19.8902 0.227307 20.1062 0.311052 20.2983C0.400779 20.4904 0.54135 20.6554 0.696876 20.7875C0.984001 21.0305 1.35188 21.1476 1.7377 21.1266C1.72873 21.3606 1.71976 21.5947 1.7048 21.8288C1.69583 22.0388 1.69583 22.2519 1.69284 22.465C1.65994 22.3689 1.61508 22.2759 1.56423 22.1889C1.46254 22.0148 1.32795 21.8648 1.16944 21.7418C0.855393 21.4987 0.448633 21.3666 0.0239271 21.4297C0.0807539 21.8918 0.299088 22.2759 0.622104 22.513C0.927174 22.7351 1.30103 22.8251 1.68686 22.7741C1.68686 23.2092 1.71079 23.6473 1.7407 24.0825C1.41768 23.4463 0.720803 23.0502 0 23.2062C0.0807539 23.6623 0.352924 24.0285 0.696876 24.2415C1.01092 24.4396 1.39076 24.5026 1.7706 24.4246C1.80949 24.8537 1.85435 25.2829 1.91716 25.709C1.54629 25.1088 0.822493 24.7727 0.119635 24.9798C0.251234 25.4269 0.535368 25.775 0.888293 25.9611C1.22028 26.1351 1.60611 26.1681 1.97697 26.0631C2.04876 26.4952 2.1325 26.9244 2.22821 27.3505C1.81248 26.7683 1.06775 26.4802 0.373861 26.7413C0.520414 27.1824 0.843429 27.5035 1.21729 27.6626C1.55825 27.8096 1.94108 27.8156 2.30298 27.6836C2.40766 28.1097 2.5273 28.5329 2.65591 28.953C2.46449 28.7189 2.22522 28.5419 1.94408 28.4398C1.56722 28.3018 1.13654 28.2958 0.753703 28.4818C0.951101 28.905 1.28309 29.2051 1.65994 29.3371C2.01586 29.4571 2.40168 29.4331 2.75461 29.2711C2.88321 29.6672 3.0178 30.0573 3.16735 30.4445C2.67086 29.9373 1.89622 29.7632 1.25318 30.1234C1.46553 30.5375 1.83042 30.8076 2.22223 30.9096C2.58113 31.0056 2.96098 30.9546 3.30194 30.7686C3.46644 31.1737 3.63991 31.5728 3.82833 31.9689C3.60701 31.7679 3.3468 31.6298 3.05668 31.5728C2.66189 31.4918 2.23718 31.5488 1.88426 31.7889C2.14147 32.179 2.51533 32.4251 2.90714 32.5001C3.27502 32.5661 3.64888 32.4851 3.9719 32.278C4.10948 32.5571 4.25304 32.8332 4.40258 33.1063C4.45941 33.2113 4.52222 33.3133 4.58204 33.4184C4.34576 33.2443 4.07059 33.1333 3.79244 33.0943C3.40064 33.0403 2.98191 33.1303 2.64693 33.3974C2.91611 33.7755 3.32586 33.9826 3.72365 34.0276C4.09153 34.0696 4.45642 33.9615 4.76448 33.7275C4.98281 34.0966 5.21012 34.4627 5.44939 34.8168C5.20414 34.6608 4.93197 34.5677 4.64784 34.5527C4.24706 34.5317 3.83731 34.6518 3.52326 34.9429C3.83731 35.288 4.2321 35.483 4.64185 35.492C5.01272 35.504 5.37163 35.369 5.65875 35.1139C5.90401 35.465 6.16122 35.8101 6.42741 36.1462C6.1702 36.0082 5.88606 35.9422 5.60193 35.9482C5.20713 35.9542 4.80635 36.1042 4.51325 36.4193C4.83626 36.7524 5.27293 36.8935 5.67072 36.8815C6.0386 36.8665 6.38255 36.7074 6.65173 36.4313C6.92689 36.7674 7.21401 37.0915 7.50712 37.4096C7.42637 37.3736 7.34262 37.3436 7.25888 37.3196C7.06447 37.2626 6.86408 37.2446 6.66369 37.2656C6.2659 37.3016 5.87709 37.4846 5.6109 37.8207C6.28983 38.4059 7.23794 38.2949 7.75237 37.6767C8.04847 37.9858 8.35055 38.2889 8.66459 38.58C8.38943 38.481 8.09932 38.4539 7.81817 38.505C7.42039 38.577 7.0555 38.778 6.81024 39.1352C7.54301 39.6573 8.4672 39.4893 8.93676 38.8261C9.05939 38.9371 9.17604 39.0481 9.30165 39.1562C9.50204 39.3302 9.70542 39.4953 9.91179 39.6603C9.62766 39.5853 9.33455 39.5823 9.06238 39.6453C8.67656 39.7413 8.31765 39.9784 8.1053 40.3475C8.3027 40.4706 8.51206 40.5456 8.71843 40.5816C8.93078 40.6116 9.14014 40.5966 9.33455 40.5426C9.69047 40.4466 9.99255 40.2125 10.1929 39.8854C10.5309 40.1495 10.8808 40.4016 11.2338 40.6446C10.5429 40.5096 9.80412 40.8157 9.48111 41.4729C9.89983 41.68 10.3455 41.704 10.7223 41.5719C11.0693 41.4489 11.3564 41.1908 11.5299 40.8487C11.8858 41.0858 12.2507 41.3108 12.6185 41.5269C11.9217 41.4489 11.2188 41.8 10.9407 42.4782C11.3624 42.6673 11.817 42.6493 12.1849 42.4842C12.5228 42.3372 12.783 42.0611 12.9356 41.707C13.3064 41.917 13.6833 42.1181 14.0661 42.3041C13.779 42.2921 13.5009 42.3462 13.2496 42.4752C12.8907 42.6583 12.5946 42.9703 12.469 43.3785C12.9117 43.5195 13.3573 43.4835 13.7102 43.2914C14.0362 43.1144 14.2755 42.8203 14.4011 42.4602C14.7839 42.6372 15.1698 42.8053 15.5616 42.9583C15.2774 42.9734 15.0053 43.0634 14.772 43.2014C14.431 43.4055 14.1618 43.7356 14.0661 44.1557C14.5118 44.2848 14.9604 44.1857 15.2984 43.9757C15.6064 43.7806 15.8248 43.4715 15.9205 43.1024C15.9384 43.1084 15.9564 43.1174 15.9773 43.1234C16.3572 43.2644 16.746 43.3905 17.1318 43.5105C16.8447 43.5435 16.5785 43.6396 16.3482 43.8046C16.0222 44.0387 15.7769 44.3898 15.7141 44.8159C16.1747 44.8909 16.6054 44.7919 16.9284 44.5428C17.2245 44.3208 17.4189 43.9937 17.4847 43.6155C17.8915 43.7326 18.2982 43.8436 18.711 43.9366C18.4328 43.9937 18.1756 44.1167 17.9603 44.2968C17.6552 44.5488 17.4369 44.915 17.404 45.3471C17.8616 45.4071 18.2952 45.2391 18.5973 44.981C18.8755 44.7409 19.043 44.4018 19.0818 44.0177C19.3002 44.0627 19.5185 44.1107 19.7368 44.1497C19.9342 44.1857 20.1316 44.2217 20.329 44.2487C20.0569 44.3268 19.8116 44.4588 19.6112 44.6539C19.3241 44.933 19.1357 45.3201 19.1357 45.7492C20.027 45.7762 20.6939 45.104 20.7149 44.3028C21.0349 44.3418 21.3519 44.3958 21.672 44.4198C21.995 44.4468 22.318 44.4978 22.644 44.5218C22.97 44.5428 23.296 44.5608 23.622 44.5668C23.948 44.5608 24.274 44.5428 24.6 44.5218C24.926 44.5008 25.2491 44.4498 25.5721 44.4198C25.8921 44.3958 26.2091 44.3418 26.5292 44.3028C26.5501 45.104 27.2171 45.7762 28.1083 45.7492C28.1083 45.3201 27.9199 44.936 27.6328 44.6539C27.4354 44.4618 27.1871 44.3268 26.915 44.2487C27.1124 44.2187 27.3098 44.1857 27.5072 44.1497C27.7255 44.1107 27.9438 44.0627 28.1622 44.0177C28.2011 44.4018 28.3715 44.7409 28.6467 44.981C28.9488 45.2391 29.3795 45.4071 29.8401 45.3471C29.8072 44.918 29.5918 44.5488 29.2838 44.2968C29.0714 44.1197 28.8112 43.9937 28.533 43.9366C28.9458 43.8436 29.3525 43.7326 29.7593 43.6155C29.8281 43.9907 30.0225 44.3178 30.3156 44.5428C30.6416 44.7919 31.0723 44.8879 31.5299 44.8159C31.4671 44.3928 31.2218 44.0387 30.8958 43.8046C30.6655 43.6396 30.3994 43.5435 30.1122 43.5105C30.501 43.3905 30.8869 43.2644 31.2667 43.1234C31.2847 43.1174 31.3026 43.1084 31.3235 43.1024C31.4192 43.4715 31.6376 43.7806 31.9456 43.9757C32.2836 44.1887 32.7352 44.2848 33.1779 44.1557C33.0822 43.7356 32.813 43.4055 32.472 43.2014C32.2358 43.0604 31.9636 42.9734 31.6824 42.9583C32.0743 42.8023 32.4631 42.6372 32.8429 42.4602C32.9655 42.8203 33.2078 43.1144 33.5338 43.2914C33.8897 43.4835 34.3324 43.5195 34.775 43.3785C34.6494 42.9703 34.3533 42.6583 33.9944 42.4752C33.7432 42.3432 33.465 42.2921 33.1779 42.3041C33.5607 42.1181 33.9376 41.917 34.3084 41.707C34.458 42.0611 34.7212 42.3342 35.0592 42.4842C35.427 42.6493 35.8816 42.6673 36.3034 42.4782C36.0282 41.8 35.3253 41.4489 34.6255 41.5269C34.9963 41.3108 35.3582 41.0858 35.7142 40.8487C35.8906 41.1878 36.1748 41.4489 36.5217 41.5719C36.8985 41.704 37.3472 41.68 37.7629 41.4729C37.4369 40.8157 36.6982 40.5096 36.0103 40.6446C36.3632 40.4016 36.7131 40.1495 37.0511 39.8854C37.2515 40.2125 37.5536 40.4466 37.9095 40.5426C38.1039 40.5966 38.3132 40.6116 38.5256 40.5816C38.732 40.5486 38.9413 40.4706 39.1387 40.3475C38.9234 39.9754 38.5675 39.7383 38.1816 39.6453C37.9095 39.5823 37.6164 39.5853 37.3322 39.6603C37.5386 39.4953 37.742 39.3272 37.9424 39.1562C38.065 39.0481 38.1846 38.9371 38.3073 38.8261C38.7738 39.4893 39.701 39.6573 40.4338 39.1352C40.1885 38.778 39.8236 38.577 39.4258 38.505C39.1447 38.4539 38.8516 38.481 38.5794 38.58C38.8905 38.2889 39.1956 37.9858 39.4916 37.6767C40.0061 38.2949 40.9542 38.4059 41.6331 37.8207C41.3669 37.4846 40.9781 37.3046 40.5803 37.2656C40.3799 37.2476 40.1795 37.2656 39.9851 37.3196C39.9014 37.3436 39.8177 37.3736 39.7369 37.4096C40.03 37.0915 40.3171 36.7674 40.5923 36.4313C40.8615 36.7074 41.2084 36.8695 41.5733 36.8815C41.9711 36.8935 42.4078 36.7524 42.7308 36.4193C42.4377 36.1042 42.0399 35.9542 41.6421 35.9482C41.358 35.9422 41.0708 36.0082 40.8166 36.1462C41.0828 35.8101 41.34 35.465 41.5853 35.1139C41.8724 35.369 42.2313 35.501 42.6022 35.492C43.0119 35.483 43.4067 35.288 43.7208 34.9429C43.4067 34.6518 42.997 34.5287 42.5962 34.5527C42.3121 34.5677 42.0399 34.6608 41.7946 34.8168C42.0339 34.4597 42.2612 34.0966 42.4795 33.7275C42.7876 33.9615 43.1525 34.0666 43.5204 34.0276C43.9182 33.9826 44.3279 33.7755 44.5971 33.3974C44.2621 33.1303 43.8434 33.0403 43.4516 33.0943C43.1734 33.1333 42.8953 33.2443 42.662 33.4184C42.7218 33.3133 42.7846 33.2113 42.8414 33.1063C42.991 32.8332 43.1345 32.5571 43.2721 32.278C43.5951 32.4851 43.969 32.5661 44.3369 32.5001C44.7317 32.4251 45.1025 32.179 45.3598 31.7889C45.0068 31.5488 44.5821 31.4888 44.1873 31.5728C43.8972 31.6298 43.64 31.7709 43.4157 31.9689C43.6041 31.5758 43.7776 31.1737 43.9421 30.7686C44.283 30.9546 44.6629 31.0056 45.0218 30.9096C45.4136 30.8076 45.7785 30.5375 45.9908 30.1234C45.3478 29.7632 44.5732 29.9373 44.0767 30.4445C44.2262 30.0573 44.3608 29.6642 44.4894 29.2711C44.8423 29.4331 45.2282 29.4571 45.5841 29.3371C45.9609 29.2051 46.2929 28.905 46.4903 28.4818C46.1045 28.2958 45.6768 28.3018 45.2999 28.4398C45.0188 28.5419 44.7795 28.7189 44.5881 28.953C44.7167 28.5329 44.8364 28.1097 44.941 27.6836C45.3029 27.8156 45.6858 27.8096 46.0267 27.6626C46.3976 27.5035 46.7206 27.1824 46.8702 26.7413C46.1763 26.4802 45.4315 26.7683 45.0158 27.3505C45.1115 26.9244 45.1953 26.4952 45.267 26.0631C45.6379 26.1681 46.0237 26.1351 46.3557 25.9611H46.3617Z" fill="url(#paint51_linear_0_8)" fill-opacity="0.34"/>
<path d="M37.5416 8.23756C37.8826 8.43862 38.2624 8.51965 38.6452 8.45663C39.0251 8.39361 39.3989 8.19254 39.6621 7.85344C38.9981 7.30727 38.0231 7.53534 37.5416 8.23456V8.23756Z" fill="url(#paint52_linear_0_8)" fill-opacity="0.34"/>
<path d="M39.5993 8.74472C39.2045 8.79273 38.8337 8.99679 38.5645 9.3269C38.72 9.44393 38.8994 9.52496 39.0879 9.56997C39.2763 9.61499 39.4587 9.642 39.6532 9.62399C40.036 9.59098 40.4218 9.41993 40.7089 9.10183C40.5534 8.95778 40.377 8.85275 40.1915 8.78973C40.0001 8.73271 39.7937 8.72071 39.5993 8.74472Z" fill="url(#paint53_linear_0_8)" fill-opacity="0.34"/>
<path d="M40.5773 9.9871C40.1825 10.0051 39.7997 10.1792 39.5036 10.4883C39.7907 10.7523 40.1945 10.8604 40.5743 10.8604C40.9572 10.8574 41.355 10.7163 41.666 10.4192C41.3909 10.0981 40.9691 9.9691 40.5773 9.9841V9.9871Z" fill="url(#paint54_linear_0_8)" fill-opacity="0.34"/>
<path d="M40.356 11.7186C40.6252 12.0037 41.002 12.1508 41.3968 12.1688C41.7827 12.1898 42.1864 12.0848 42.5184 11.8087C42.2582 11.4726 41.8455 11.3135 41.4596 11.2985C41.0678 11.2865 40.6701 11.4306 40.353 11.7186H40.356Z" fill="url(#paint55_linear_0_8)" fill-opacity="0.34"/>
<path d="M41.1127 13.006C41.5942 13.6092 42.5723 13.7413 43.2691 13.2581C42.7397 12.5649 41.7857 12.4719 41.1127 13.006Z" fill="url(#paint56_linear_0_8)" fill-opacity="0.34"/>
<path d="M41.7767 14.3475C42.2044 14.9867 43.1645 15.1967 43.8972 14.7676C43.4306 14.0354 42.4885 13.8673 41.7767 14.3475Z" fill="url(#paint57_linear_0_8)" fill-opacity="0.34"/>
<path d="M30.5818 2.55379C30.2678 2.79087 30.0494 3.15098 29.9806 3.57411C30.3665 3.62813 30.7523 3.50809 31.0753 3.27402C31.3923 3.04595 31.6376 2.71284 31.7303 2.28971C31.3176 2.19368 30.8958 2.32572 30.5848 2.55679L30.5818 2.55379Z" fill="url(#paint58_linear_0_8)" fill-opacity="0.34"/>
<path d="M31.3744 4.10227C32.1251 4.27333 32.9715 3.76317 33.2138 2.94992C32.3703 2.73985 31.5658 3.26501 31.3744 4.10227Z" fill="url(#paint59_linear_0_8)" fill-opacity="0.34"/>
<path d="M32.7263 4.73547C33.459 4.96954 34.3384 4.53141 34.6434 3.73616C33.8239 3.45407 32.9835 3.91322 32.7263 4.73547Z" fill="url(#paint60_linear_0_8)" fill-opacity="0.34"/>
<path d="M34.0273 5.4647C34.7361 5.75879 35.6424 5.39267 36.0073 4.62444C35.2147 4.27633 34.3473 4.66345 34.0273 5.4647Z" fill="url(#paint61_linear_0_8)" fill-opacity="0.34"/>
<path d="M36.1448 5.50371C35.7829 5.62375 35.4569 5.91784 35.2715 6.29596C35.9594 6.64106 36.8806 6.35297 37.3053 5.60874C36.9285 5.40468 36.5097 5.37767 36.1478 5.50371H36.1448Z" fill="url(#paint62_linear_0_8)" fill-opacity="0.34"/>
<path d="M37.3801 6.49102C36.9943 6.60205 36.6593 6.86013 36.4409 7.22625C36.6204 7.31327 36.7998 7.37329 36.9853 7.4003C37.1707 7.42431 37.3651 7.4123 37.5535 7.36729C37.9304 7.27426 38.2893 7.04619 38.5256 6.68908C38.1667 6.45501 37.7569 6.39199 37.3831 6.49102H37.3801Z" fill="url(#paint63_linear_0_8)" fill-opacity="0.34"/>
<path d="M42.339 15.7339C42.7068 16.4091 43.643 16.6912 44.4087 16.3191C44.0079 15.5508 43.0867 15.3108 42.339 15.7339Z" fill="url(#paint64_linear_0_8)" fill-opacity="0.34"/>
<path d="M43.966 17.0903C43.6101 16.9583 43.1704 16.9823 42.7906 17.1593C43.1136 17.8585 44.0079 18.2157 44.8035 17.9006C44.639 17.5044 44.3309 17.2223 43.969 17.0903H43.966Z" fill="url(#paint65_linear_0_8)" fill-opacity="0.34"/>
<path d="M44.313 18.6358C43.9451 18.4797 43.5204 18.4707 43.1226 18.6178C43.2961 18.9749 43.5443 19.263 43.9032 19.425C44.2531 19.5901 44.6748 19.6381 45.0816 19.5061C44.947 19.0979 44.6778 18.7888 44.313 18.6358Z" fill="url(#paint66_linear_0_8)" fill-opacity="0.34"/>
<path d="M44.5283 20.2053C44.1754 20.0222 43.7537 19.9802 43.3469 20.0972C43.4097 20.2833 43.5114 20.4514 43.643 20.5954C43.7686 20.7394 43.9062 20.8655 44.0767 20.9615C44.4087 21.1506 44.8244 21.2316 45.2431 21.1326C45.1953 20.9255 45.1085 20.7394 44.9919 20.5804C44.8693 20.4243 44.7048 20.2983 44.5283 20.2053Z" fill="url(#paint67_linear_0_8)" fill-opacity="0.34"/>
<path d="M45.2132 22.459C45.1713 22.3629 45.1205 22.2759 45.0607 22.1919C44.944 22.0268 44.7975 21.8888 44.63 21.7838C44.295 21.5737 43.8793 21.5017 43.4635 21.5887C43.5533 21.9698 43.8135 22.2879 44.1425 22.504C44.4625 22.7171 44.8722 22.8281 45.294 22.7591C45.279 22.654 45.2521 22.552 45.2162 22.459H45.2132Z" fill="url(#paint68_linear_0_8)" fill-opacity="0.34"/>
<path d="M43.4845 23.0892C43.5592 23.4763 43.7656 23.8124 44.0737 24.0525C44.3817 24.2895 44.7825 24.4306 45.2102 24.3946C45.1354 23.5333 44.3309 22.9691 43.4875 23.0922L43.4845 23.0892Z" fill="url(#paint69_linear_0_8)" fill-opacity="0.34"/>
<path d="M44.5104 24.9498C44.2143 24.6947 43.8165 24.5596 43.3888 24.5836C43.4157 24.9738 43.6101 25.3249 43.9062 25.5889C44.1903 25.847 44.5791 26.0181 45.0068 26.0121C45.0068 25.586 44.8005 25.2048 44.5104 24.9498Z" fill="url(#paint70_linear_0_8)" fill-opacity="0.34"/>
<path d="M43.1734 26.0631C43.1884 26.4562 43.3439 26.8193 43.6131 27.1014C43.8823 27.3835 44.2591 27.5816 44.6838 27.6086C44.7406 26.7443 44.0258 26.0661 43.1734 26.0631Z" fill="url(#paint71_linear_0_8)" fill-opacity="0.34"/>
<path d="M43.9062 28.0557C43.652 27.7586 43.2781 27.5666 42.8534 27.5246C42.8205 27.9147 42.9641 28.2898 43.2153 28.5959C43.4576 28.896 43.8165 29.121 44.2382 29.1811C44.307 28.7609 44.1544 28.3498 43.9062 28.0557Z" fill="url(#paint72_linear_0_8)" fill-opacity="0.34"/>
</g>
<defs>
<filter id="filter0_i_0_8" x="0" y="0" width="47.25" height="45.825" filterUnits="userSpaceOnUse" color-interpolation-filters="sRGB">
<feFlood flood-opacity="0" result="BackgroundImageFix"/>
<feBlend mode="normal" in="SourceGraphic" in2="BackgroundImageFix" result="shape"/>
<feColorMatrix in="SourceAlpha" type="matrix" values="0 0 0 0 0 0 0 0 0 0 0 0 0 0 0 0 0 0 127 0" result="hardAlpha"/>
<feOffset dy="0.075"/>
<feGaussianBlur stdDeviation="0.0375"/>
<feComposite in2="hardAlpha" operator="arithmetic" k2="-1" k3="1"/>
<feColorMatrix type="matrix" values="0 0 0 0 0 0 0 0 0 0 0 0 0 0 0 0 0 0 1 0"/>
<feBlend mode="normal" in2="shape" result="effect1_innerShadow_0_8"/>
</filter>
<linearGradient id="paint0_linear_0_8" x1="3.75" y1="32.625" x2="48.5625" y2="6.375" gradientUnits="userSpaceOnUse">
<stop stop-color="#BDBDBD" stop-opacity="0.39"/>
<stop offset="0.272332" stop-color="white"/>
<stop offset="1" stop-color="white"/>
</linearGradient>
<linearGradient id="paint1_linear_0_8" x1="3.75" y1="32.625" x2="48.5625" y2="6.375" gradientUnits="userSpaceOnUse">
<stop stop-color="#BDBDBD" stop-opacity="0.39"/>
<stop offset="0.272332" stop-color="white"/>
<stop offset="1" stop-color="white"/>
</linearGradient>
<linearGradient id="paint2_linear_0_8" x1="3.75" y1="32.625" x2="48.5625" y2="6.375" gradientUnits="userSpaceOnUse">
<stop stop-color="#BDBDBD" stop-opacity="0.39"/>
<stop offset="0.272332" stop-color="white"/>
<stop offset="1" stop-color="white"/>
</linearGradient>
<linearGradient id="paint3_linear_0_8" x1="3.75" y1="32.625" x2="48.5625" y2="6.375" gradientUnits="userSpaceOnUse">
<stop stop-color="#BDBDBD" stop-opacity="0.39"/>
<stop offset="0.272332" stop-color="white"/>
<stop offset="1" stop-color="white"/>
</linearGradient>
<linearGradient id="paint4_linear_0_8" x1="3.75" y1="32.625" x2="48.5625" y2="6.375" gradientUnits="userSpaceOnUse">
<stop stop-color="#BDBDBD" stop-opacity="0.39"/>
<stop offset="0.272332" stop-color="white"/>
<stop offset="1" stop-color="white"/>
</linearGradient>
<linearGradient id="paint5_linear_0_8" x1="3.75" y1="32.625" x2="48.5625" y2="6.375" gradientUnits="userSpaceOnUse">
<stop stop-color="#BDBDBD" stop-opacity="0.39"/>
<stop offset="0.272332" stop-color="white"/>
<stop offset="1" stop-color="white"/>
</linearGradient>
<linearGradient id="paint6_linear_0_8" x1="3.75" y1="32.625" x2="48.5625" y2="6.375" gradientUnits="userSpaceOnUse">
<stop stop-color="#BDBDBD" stop-opacity="0.39"/>
<stop offset="0.272332" stop-color="white"/>
<stop offset="1" stop-color="white"/>
</linearGradient>
<linearGradient id="paint7_linear_0_8" x1="3.75" y1="32.625" x2="48.5625" y2="6.375" gradientUnits="userSpaceOnUse">
<stop stop-color="#BDBDBD" stop-opacity="0.39"/>
<stop offset="0.272332" stop-color="white"/>
<stop offset="1" stop-color="white"/>
</linearGradient>
<linearGradient id="paint8_linear_0_8" x1="3.75" y1="32.625" x2="48.5625" y2="6.375" gradientUnits="userSpaceOnUse">
<stop stop-color="#BDBDBD" stop-opacity="0.39"/>
<stop offset="0.272332" stop-color="white"/>
<stop offset="1" stop-color="white"/>
</linearGradient>
<linearGradient id="paint9_linear_0_8" x1="3.75" y1="32.625" x2="48.5625" y2="6.375" gradientUnits="userSpaceOnUse">
<stop stop-color="#BDBDBD" stop-opacity="0.39"/>
<stop offset="0.272332" stop-color="white"/>
<stop offset="1" stop-color="white"/>
</linearGradient>
<linearGradient id="paint10_linear_0_8" x1="3.75" y1="32.625" x2="48.5625" y2="6.375" gradientUnits="userSpaceOnUse">
<stop stop-color="#BDBDBD" stop-opacity="0.39"/>
<stop offset="0.272332" stop-color="white"/>
<stop offset="1" stop-color="white"/>
</linearGradient>
<linearGradient id="paint11_linear_0_8" x1="3.75" y1="32.625" x2="48.5625" y2="6.375" gradientUnits="userSpaceOnUse">
<stop stop-color="#BDBDBD" stop-opacity="0.39"/>
<stop offset="0.272332" stop-color="white"/>
<stop offset="1" stop-color="white"/>
</linearGradient>
<linearGradient id="paint12_linear_0_8" x1="3.75" y1="32.625" x2="48.5625" y2="6.375" gradientUnits="userSpaceOnUse">
<stop stop-color="#BDBDBD" stop-opacity="0.39"/>
<stop offset="0.272332" stop-color="white"/>
<stop offset="1" stop-color="white"/>
</linearGradient>
<linearGradient id="paint13_linear_0_8" x1="3.75" y1="32.625" x2="48.5625" y2="6.375" gradientUnits="userSpaceOnUse">
<stop stop-color="#BDBDBD" stop-opacity="0.39"/>
<stop offset="0.272332" stop-color="white"/>
<stop offset="1" stop-color="white"/>
</linearGradient>
<linearGradient id="paint14_linear_0_8" x1="3.75" y1="32.625" x2="48.5625" y2="6.375" gradientUnits="userSpaceOnUse">
<stop stop-color="#BDBDBD" stop-opacity="0.39"/>
<stop offset="0.272332" stop-color="white"/>
<stop offset="1" stop-color="white"/>
</linearGradient>
<linearGradient id="paint15_linear_0_8" x1="3.75" y1="32.625" x2="48.5625" y2="6.375" gradientUnits="userSpaceOnUse">
<stop stop-color="#BDBDBD" stop-opacity="0.39"/>
<stop offset="0.272332" stop-color="white"/>
<stop offset="1" stop-color="white"/>
</linearGradient>
<linearGradient id="paint16_linear_0_8" x1="3.75" y1="32.625" x2="48.5625" y2="6.375" gradientUnits="userSpaceOnUse">
<stop stop-color="#BDBDBD" stop-opacity="0.39"/>
<stop offset="0.272332" stop-color="white"/>
<stop offset="1" stop-color="white"/>
</linearGradient>
<linearGradient id="paint17_linear_0_8" x1="3.75" y1="32.625" x2="48.5625" y2="6.375" gradientUnits="userSpaceOnUse">
<stop stop-color="#BDBDBD" stop-opacity="0.39"/>
<stop offset="0.272332" stop-color="white"/>
<stop offset="1" stop-color="white"/>
</linearGradient>
<linearGradient id="paint18_linear_0_8" x1="3.75" y1="32.625" x2="48.5625" y2="6.375" gradientUnits="userSpaceOnUse">
<stop stop-color="#BDBDBD" stop-opacity="0.39"/>
<stop offset="0.272332" stop-color="white"/>
<stop offset="1" stop-color="white"/>
</linearGradient>
<linearGradient id="paint19_linear_0_8" x1="3.75" y1="32.625" x2="48.5625" y2="6.375" gradientUnits="userSpaceOnUse">
<stop stop-color="#BDBDBD" stop-opacity="0.39"/>
<stop offset="0.272332" stop-color="white"/>
<stop offset="1" stop-color="white"/>
</linearGradient>
<linearGradient id="paint20_linear_0_8" x1="3.75" y1="32.625" x2="48.5625" y2="6.375" gradientUnits="userSpaceOnUse">
<stop stop-color="#BDBDBD" stop-opacity="0.39"/>
<stop offset="0.272332" stop-color="white"/>
<stop offset="1" stop-color="white"/>
</linearGradient>
<linearGradient id="paint21_linear_0_8" x1="3.75" y1="32.625" x2="48.5625" y2="6.375" gradientUnits="userSpaceOnUse">
<stop stop-color="#BDBDBD" stop-opacity="0.39"/>
<stop offset="0.272332" stop-color="white"/>
<stop offset="1" stop-color="white"/>
</linearGradient>
<linearGradient id="paint22_linear_0_8" x1="3.75" y1="32.625" x2="48.5625" y2="6.375" gradientUnits="userSpaceOnUse">
<stop stop-color="#BDBDBD" stop-opacity="0.39"/>
<stop offset="0.272332" stop-color="white"/>
<stop offset="1" stop-color="white"/>
</linearGradient>
<linearGradient id="paint23_linear_0_8" x1="3.75" y1="32.625" x2="48.5625" y2="6.375" gradientUnits="userSpaceOnUse">
<stop stop-color="#BDBDBD" stop-opacity="0.39"/>
<stop offset="0.272332" stop-color="white"/>
<stop offset="1" stop-color="white"/>
</linearGradient>
<linearGradient id="paint24_linear_0_8" x1="3.75" y1="32.625" x2="48.5625" y2="6.375" gradientUnits="userSpaceOnUse">
<stop stop-color="#BDBDBD" stop-opacity="0.39"/>
<stop offset="0.272332" stop-color="white"/>
<stop offset="1" stop-color="white"/>
</linearGradient>
<linearGradient id="paint25_linear_0_8" x1="3.75" y1="32.625" x2="48.5625" y2="6.375" gradientUnits="userSpaceOnUse">
<stop stop-color="#BDBDBD" stop-opacity="0.39"/>
<stop offset="0.272332" stop-color="white"/>
<stop offset="1" stop-color="white"/>
</linearGradient>
<linearGradient id="paint26_linear_0_8" x1="3.75" y1="32.625" x2="48.5625" y2="6.375" gradientUnits="userSpaceOnUse">
<stop stop-color="#BDBDBD" stop-opacity="0.39"/>
<stop offset="0.272332" stop-color="white"/>
<stop offset="1" stop-color="white"/>
</linearGradient>
<linearGradient id="paint27_linear_0_8" x1="3.75" y1="32.625" x2="48.5625" y2="6.375" gradientUnits="userSpaceOnUse">
<stop stop-color="#BDBDBD" stop-opacity="0.39"/>
<stop offset="0.272332" stop-color="white"/>
<stop offset="1" stop-color="white"/>
</linearGradient>
<linearGradient id="paint28_linear_0_8" x1="3.75" y1="32.625" x2="48.5625" y2="6.375" gradientUnits="userSpaceOnUse">
<stop stop-color="#BDBDBD" stop-opacity="0.39"/>
<stop offset="0.272332" stop-color="white"/>
<stop offset="1" stop-color="white"/>
</linearGradient>
<linearGradient id="paint29_linear_0_8" x1="3.75" y1="32.625" x2="48.5625" y2="6.375" gradientUnits="userSpaceOnUse">
<stop stop-color="#BDBDBD" stop-opacity="0.39"/>
<stop offset="0.272332" stop-color="white"/>
<stop offset="1" stop-color="white"/>
</linearGradient>
<linearGradient id="paint30_linear_0_8" x1="3.75" y1="32.625" x2="48.5625" y2="6.375" gradientUnits="userSpaceOnUse">
<stop stop-color="#BDBDBD" stop-opacity="0.39"/>
<stop offset="0.272332" stop-color="white"/>
<stop offset="1" stop-color="white"/>
</linearGradient>
<linearGradient id="paint31_linear_0_8" x1="3.75" y1="32.625" x2="48.5625" y2="6.375" gradientUnits="userSpaceOnUse">
<stop stop-color="#BDBDBD" stop-opacity="0.39"/>
<stop offset="0.272332" stop-color="white"/>
<stop offset="1" stop-color="white"/>
</linearGradient>
<linearGradient id="paint32_linear_0_8" x1="3.75" y1="32.625" x2="48.5625" y2="6.375" gradientUnits="userSpaceOnUse">
<stop stop-color="#BDBDBD" stop-opacity="0.39"/>
<stop offset="0.272332" stop-color="white"/>
<stop offset="1" stop-color="white"/>
</linearGradient>
<linearGradient id="paint33_linear_0_8" x1="3.75" y1="32.625" x2="48.5625" y2="6.375" gradientUnits="userSpaceOnUse">
<stop stop-color="#BDBDBD" stop-opacity="0.39"/>
<stop offset="0.272332" stop-color="white"/>
<stop offset="1" stop-color="white"/>
</linearGradient>
<linearGradient id="paint34_linear_0_8" x1="3.75" y1="32.625" x2="48.5625" y2="6.375" gradientUnits="userSpaceOnUse">
<stop stop-color="#BDBDBD" stop-opacity="0.39"/>
<stop offset="0.272332" stop-color="white"/>
<stop offset="1" stop-color="white"/>
</linearGradient>
<linearGradient id="paint35_linear_0_8" x1="3.75" y1="32.625" x2="48.5625" y2="6.375" gradientUnits="userSpaceOnUse">
<stop stop-color="#BDBDBD" stop-opacity="0.39"/>
<stop offset="0.272332" stop-color="white"/>
<stop offset="1" stop-color="white"/>
</linearGradient>
<linearGradient id="paint36_linear_0_8" x1="3.75" y1="32.625" x2="48.5625" y2="6.375" gradientUnits="userSpaceOnUse">
<stop stop-color="#BDBDBD" stop-opacity="0.39"/>
<stop offset="0.272332" stop-color="white"/>
<stop offset="1" stop-color="white"/>
</linearGradient>
<linearGradient id="paint37_linear_0_8" x1="3.75" y1="32.625" x2="48.5625" y2="6.375" gradientUnits="userSpaceOnUse">
<stop stop-color="#BDBDBD" stop-opacity="0.39"/>
<stop offset="0.272332" stop-color="white"/>
<stop offset="1" stop-color="white"/>
</linearGradient>
<linearGradient id="paint38_linear_0_8" x1="3.75" y1="32.625" x2="48.5625" y2="6.375" gradientUnits="userSpaceOnUse">
<stop stop-color="#BDBDBD" stop-opacity="0.39"/>
<stop offset="0.272332" stop-color="white"/>
<stop offset="1" stop-color="white"/>
</linearGradient>
<linearGradient id="paint39_linear_0_8" x1="3.75" y1="32.625" x2="48.5625" y2="6.375" gradientUnits="userSpaceOnUse">
<stop stop-color="#BDBDBD" stop-opacity="0.39"/>
<stop offset="0.272332" stop-color="white"/>
<stop offset="1" stop-color="white"/>
</linearGradient>
<linearGradient id="paint40_linear_0_8" x1="3.75" y1="32.625" x2="48.5625" y2="6.375" gradientUnits="userSpaceOnUse">
<stop stop-color="#BDBDBD" stop-opacity="0.39"/>
<stop offset="0.272332" stop-color="white"/>
<stop offset="1" stop-color="white"/>
</linearGradient>
<linearGradient id="paint41_linear_0_8" x1="3.75" y1="32.625" x2="48.5625" y2="6.375" gradientUnits="userSpaceOnUse">
<stop stop-color="#BDBDBD" stop-opacity="0.39"/>
<stop offset="0.272332" stop-color="white"/>
<stop offset="1" stop-color="white"/>
</linearGradient>
<linearGradient id="paint42_linear_0_8" x1="3.75" y1="32.625" x2="48.5625" y2="6.375" gradientUnits="userSpaceOnUse">
<stop stop-color="#BDBDBD" stop-opacity="0.39"/>
<stop offset="0.272332" stop-color="white"/>
<stop offset="1" stop-color="white"/>
</linearGradient>
<linearGradient id="paint43_linear_0_8" x1="3.75" y1="32.625" x2="48.5625" y2="6.375" gradientUnits="userSpaceOnUse">
<stop stop-color="#BDBDBD" stop-opacity="0.39"/>
<stop offset="0.272332" stop-color="white"/>
<stop offset="1" stop-color="white"/>
</linearGradient>
<linearGradient id="paint44_linear_0_8" x1="3.75" y1="32.625" x2="48.5625" y2="6.375" gradientUnits="userSpaceOnUse">
<stop stop-color="#BDBDBD" stop-opacity="0.39"/>
<stop offset="0.272332" stop-color="white"/>
<stop offset="1" stop-color="white"/>
</linearGradient>
<linearGradient id="paint45_linear_0_8" x1="3.75" y1="32.625" x2="48.5625" y2="6.375" gradientUnits="userSpaceOnUse">
<stop stop-color="#BDBDBD" stop-opacity="0.39"/>
<stop offset="0.272332" stop-color="white"/>
<stop offset="1" stop-color="white"/>
</linearGradient>
<linearGradient id="paint46_linear_0_8" x1="3.75" y1="32.625" x2="48.5625" y2="6.375" gradientUnits="userSpaceOnUse">
<stop stop-color="#BDBDBD" stop-opacity="0.39"/>
<stop offset="0.272332" stop-color="white"/>
<stop offset="1" stop-color="white"/>
</linearGradient>
<linearGradient id="paint47_linear_0_8" x1="3.75" y1="32.625" x2="48.5625" y2="6.375" gradientUnits="userSpaceOnUse">
<stop stop-color="#BDBDBD" stop-opacity="0.39"/>
<stop offset="0.272332" stop-color="white"/>
<stop offset="1" stop-color="white"/>
</linearGradient>
<linearGradient id="paint48_linear_0_8" x1="3.75" y1="32.625" x2="48.5625" y2="6.375" gradientUnits="userSpaceOnUse">
<stop stop-color="#BDBDBD" stop-opacity="0.39"/>
<stop offset="0.272332" stop-color="white"/>
<stop offset="1" stop-color="white"/>
</linearGradient>
<linearGradient id="paint49_linear_0_8" x1="3.75" y1="32.625" x2="48.5625" y2="6.375" gradientUnits="userSpaceOnUse">
<stop stop-color="#BDBDBD" stop-opacity="0.39"/>
<stop offset="0.272332" stop-color="white"/>
<stop offset="1" stop-color="white"/>
</linearGradient>
<linearGradient id="paint50_linear_0_8" x1="3.75" y1="32.625" x2="48.5625" y2="6.375" gradientUnits="userSpaceOnUse">
<stop stop-color="#BDBDBD" stop-opacity="0.39"/>
<stop offset="0.272332" stop-color="white"/>
<stop offset="1" stop-color="white"/>
</linearGradient>
<linearGradient id="paint51_linear_0_8" x1="3.75" y1="32.625" x2="48.5625" y2="6.375" gradientUnits="userSpaceOnUse">
<stop stop-color="#BDBDBD" stop-opacity="0.39"/>
<stop offset="0.272332" stop-color="white"/>
<stop offset="1" stop-color="white"/>
</linearGradient>
<linearGradient id="paint52_linear_0_8" x1="3.75" y1="32.625" x2="48.5625" y2="6.375" gradientUnits="userSpaceOnUse">
<stop stop-color="#BDBDBD" stop-opacity="0.39"/>
<stop offset="0.272332" stop-color="white"/>
<stop offset="1" stop-color="white"/>
</linearGradient>
<linearGradient id="paint53_linear_0_8" x1="3.75" y1="32.625" x2="48.5625" y2="6.375" gradientUnits="userSpaceOnUse">
<stop stop-color="#BDBDBD" stop-opacity="0.39"/>
<stop offset="0.272332" stop-color="white"/>
<stop offset="1" stop-color="white"/>
</linearGradient>
<linearGradient id="paint54_linear_0_8" x1="3.75" y1="32.625" x2="48.5625" y2="6.375" gradientUnits="userSpaceOnUse">
<stop stop-color="#BDBDBD" stop-opacity="0.39"/>
<stop offset="0.272332" stop-color="white"/>
<stop offset="1" stop-color="white"/>
</linearGradient>
<linearGradient id="paint55_linear_0_8" x1="3.75" y1="32.625" x2="48.5625" y2="6.375" gradientUnits="userSpaceOnUse">
<stop stop-color="#BDBDBD" stop-opacity="0.39"/>
<stop offset="0.272332" stop-color="white"/>
<stop offset="1" stop-color="white"/>
</linearGradient>
<linearGradient id="paint56_linear_0_8" x1="3.75" y1="32.625" x2="48.5625" y2="6.375" gradientUnits="userSpaceOnUse">
<stop stop-color="#BDBDBD" stop-opacity="0.39"/>
<stop offset="0.272332" stop-color="white"/>
<stop offset="1" stop-color="white"/>
</linearGradient>
<linearGradient id="paint57_linear_0_8" x1="3.75" y1="32.625" x2="48.5625" y2="6.375" gradientUnits="userSpaceOnUse">
<stop stop-color="#BDBDBD" stop-opacity="0.39"/>
<stop offset="0.272332" stop-color="white"/>
<stop offset="1" stop-color="white"/>
</linearGradient>
<linearGradient id="paint58_linear_0_8" x1="3.75" y1="32.625" x2="48.5625" y2="6.375" gradientUnits="userSpaceOnUse">
<stop stop-color="#BDBDBD" stop-opacity="0.39"/>
<stop offset="0.272332" stop-color="white"/>
<stop offset="1" stop-color="white"/>
</linearGradient>
<linearGradient id="paint59_linear_0_8" x1="3.75" y1="32.625" x2="48.5625" y2="6.375" gradientUnits="userSpaceOnUse">
<stop stop-color="#BDBDBD" stop-opacity="0.39"/>
<stop offset="0.272332" stop-color="white"/>
<stop offset="1" stop-color="white"/>
</linearGradient>
<linearGradient id="paint60_linear_0_8" x1="3.75" y1="32.625" x2="48.5625" y2="6.375" gradientUnits="userSpaceOnUse">
<stop stop-color="#BDBDBD" stop-opacity="0.39"/>
<stop offset="0.272332" stop-color="white"/>
<stop offset="1" stop-color="white"/>
</linearGradient>
<linearGradient id="paint61_linear_0_8" x1="3.75" y1="32.625" x2="48.5625" y2="6.375" gradientUnits="userSpaceOnUse">
<stop stop-color="#BDBDBD" stop-opacity="0.39"/>
<stop offset="0.272332" stop-color="white"/>
<stop offset="1" stop-color="white"/>
</linearGradient>
<linearGradient id="paint62_linear_0_8" x1="3.75" y1="32.625" x2="48.5625" y2="6.375" gradientUnits="userSpaceOnUse">
<stop stop-color="#BDBDBD" stop-opacity="0.39"/>
<stop offset="0.272332" stop-color="white"/>
<stop offset="1" stop-color="white"/>
</linearGradient>
<linearGradient id="paint63_linear_0_8" x1="3.75" y1="32.625" x2="48.5625" y2="6.375" gradientUnits="userSpaceOnUse">
<stop stop-color="#BDBDBD" stop-opacity="0.39"/>
<stop offset="0.272332" stop-color="white"/>
<stop offset="1" stop-color="white"/>
</linearGradient>
<linearGradient id="paint64_linear_0_8" x1="3.75" y1="32.625" x2="48.5625" y2="6.375" gradientUnits="userSpaceOnUse">
<stop stop-color="#BDBDBD" stop-opacity="0.39"/>
<stop offset="0.272332" stop-color="white"/>
<stop offset="1" stop-color="white"/>
</linearGradient>
<linearGradient id="paint65_linear_0_8" x1="3.75" y1="32.625" x2="48.5625" y2="6.375" gradientUnits="userSpaceOnUse">
<stop stop-color="#BDBDBD" stop-opacity="0.39"/>
<stop offset="0.272332" stop-color="white"/>
<stop offset="1" stop-color="white"/>
</linearGradient>
<linearGradient id="paint66_linear_0_8" x1="3.75" y1="32.625" x2="48.5625" y2="6.375" gradientUnits="userSpaceOnUse">
<stop stop-color="#BDBDBD" stop-opacity="0.39"/>
<stop offset="0.272332" stop-color="white"/>
<stop offset="1" stop-color="white"/>
</linearGradient>
<linearGradient id="paint67_linear_0_8" x1="3.75" y1="32.625" x2="48.5625" y2="6.375" gradientUnits="userSpaceOnUse">
<stop stop-color="#BDBDBD" stop-opacity="0.39"/>
<stop offset="0.272332" stop-color="white"/>
<stop offset="1" stop-color="white"/>
</linearGradient>
<linearGradient id="paint68_linear_0_8" x1="3.75" y1="32.625" x2="48.5625" y2="6.375" gradientUnits="userSpaceOnUse">
<stop stop-color="#BDBDBD" stop-opacity="0.39"/>
<stop offset="0.272332" stop-color="white"/>
<stop offset="1" stop-color="white"/>
</linearGradient>
<linearGradient id="paint69_linear_0_8" x1="3.75" y1="32.625" x2="48.5625" y2="6.375" gradientUnits="userSpaceOnUse">
<stop stop-color="#BDBDBD" stop-opacity="0.39"/>
<stop offset="0.272332" stop-color="white"/>
<stop offset="1" stop-color="white"/>
</linearGradient>
<linearGradient id="paint70_linear_0_8" x1="3.75" y1="32.625" x2="48.5625" y2="6.375" gradientUnits="userSpaceOnUse">
<stop stop-color="#BDBDBD" stop-opacity="0.39"/>
<stop offset="0.272332" stop-color="white"/>
<stop offset="1" stop-color="white"/>
</linearGradient>
<linearGradient id="paint71_linear_0_8" x1="3.75" y1="32.625" x2="48.5625" y2="6.375" gradientUnits="userSpaceOnUse">
<stop stop-color="#BDBDBD" stop-opacity="0.39"/>
<stop offset="0.272332" stop-color="white"/>
<stop offset="1" stop-color="white"/>
</linearGradient>
<linearGradient id="paint72_linear_0_8" x1="3.75" y1="32.625" x2="48.5625" y2="6.375" gradientUnits="userSpaceOnUse">
<stop stop-color="#BDBDBD" stop-opacity="0.39"/>
<stop offset="0.272332" stop-color="white"/>
<stop offset="1" stop-color="white"/>
</linearGradient>
</defs>
</svg>
